<?xml version="1.0" encoding="utf-8"?>
<!-- Generator: Adobe Illustrator 24.0.3, SVG Export Plug-In . SVG Version: 6.00 Build 0)  -->
<svg version="1.1" id="Layer_1" xmlns="http://www.w3.org/2000/svg" xmlns:xlink="http://www.w3.org/1999/xlink" x="0px" y="0px"
	 viewBox="0 0 712.6 195.4" style="enable-background:new 0 0 712.6 195.4;" xml:space="preserve">
<style type="text/css">
	.st0{clip-path:url(#SVGID_2_);fill:#180A7E;}
</style>
<g>
	<defs>
		<rect id="SVGID_1_" width="712.6" height="195.4"/>
	</defs>
	<clipPath id="SVGID_2_">
		<use xlink:href="#SVGID_1_"  style="overflow:visible;"/>
	</clipPath>
	<path class="st0" d="M372.6,55.6c0.6,0.4,1.4,0.5,2,0.3c0.1,0,1-0.4,1.2-1.3c0-0.1,0.2-0.7-0.1-1.3c-0.4-1-1.5-1.2-1.6-1.2
		c-0.8-0.1-1.7,0.2-2.2,1C371.6,53.9,371.9,55,372.6,55.6"/>
	<path class="st0" d="M365.7,51.3c0.5-1.2,0-3-1.4-3.8c-1.4-0.8-3.1-0.3-4,0.9c-0.8,1.2-0.7,2.8,0.1,3.7
		C361.8,53.7,364.9,53.2,365.7,51.3"/>
	<path class="st0" d="M166,135.7c1.3-0.9,2.6-1.8,3.9-2.7c1.7-1.2,2.4-3,2.5-5.1c0.1-1.3,0.1-2.6,0-3.9c0-1.3,0.3-2.3,1.5-2.9
		c1.1-0.6,2.3-3.7,2-4.9c-0.2-0.9-0.8-1.3-1.6-1.5c-0.8-0.3-1.5-0.6-2.3-1c-1.3,1.1-0.9,2.7-0.9,4.2c0,0.3,0.3,0.6,0.6,0.7
		c0.3,0.2,0.7,0.3,1.3,0.5c-0.2,0.6-0.3,1.1-0.5,1.6c-0.7,1.8-1.5,3.6-1.3,5.7c0.1,0.6-0.2,1.1-0.6,1.7c-0.4-1.5-0.8-3.1-1.1-4.6
		c-0.2-0.9-0.4-1.8-0.5-2.6c-0.1-0.4-0.1-1,0.1-1.3c0.7-1,0.6-2.1,0.7-3.2c0.2-1.3-0.3-1.8-1.6-2.1c-0.9-0.2-1.8-0.4-3-0.6
		c-0.1,0.1-0.4,0.4-0.4,0.7c-0.2,0.8-0.4,1.6-0.5,2.5c-0.2,1.2,0,1.7,1.2,2c0.3,0.1,0.7,0.1,1,0.2c0.3,0.1,0.5,0.2,0.7,0.2
		c0.1,0.2,0.2,0.3,0.2,0.4c-1,3.1,0.2,6,0.8,8.9c0.3,1.6,0.4,1.6-0.9,2.5c-1,0.7-1.9,1.3-2.9,1.9c-1.8,1.1-3,2.5-2.5,4.7
		c0.8-0.1,2-0.4,3.2-1.3C165.4,136.2,165.3,136.1,166,135.7"/>
	<path class="st0" d="M617.5,129.8C617.5,129.8,617.5,129.8,617.5,129.8C617.5,129.8,617.5,129.8,617.5,129.8
		C617.5,129.8,617.5,129.8,617.5,129.8"/>
	<path class="st0" d="M211,107.8c-0.5-1-0.9-1-2-0.6c-2.4,1-4.9,1.9-7.3,2.8c-0.3,0.1-0.9,0.2-1.1,0c-0.9-0.9-1.9-0.4-2.8-0.6
		c-0.7,1.8-0.8,4-0.2,5.3c0.5,1.1,1,1.3,2.2,1c0.5-0.1,1-0.3,1.7-0.5c0.1,0.6,0.3,1.1,0.2,1.6c-0.1,1.2,0.1,2.3,0.5,3.4
		c0.4,1.2,0.4,1.3-0.7,1.8c-0.5,0.3-1,0.4-1.1,1.1c-0.2,1.5,0.1,2.8,0.8,4.1c0.8-0.5,1.5-1,2.3-1.4c1.9-1,2.5-2.1,2.1-4.2
		c-0.1-0.6-0.4-1.3-0.7-1.9c-0.4-0.8-0.9-1.6-1.2-2.4c-0.8-1.8,0-3.3,1.8-3.9c0.6-0.2,1.1-0.6,1.7-0.6c1-0.1,2-0.2,2.9,0
		c0.5,0.1,0.7,1,1,1.6c0.1,0.2,0.2,0.5,0.4,0.8c0.9,1.7,1.8,3.5,1.4,5.5c0,0.3,0.1,0.5,0.1,1c0.4-0.2,0.6-0.3,0.6-0.4
		c1.2-2.6,1.3-5.2,0.3-7.8C213.1,111.8,212,109.8,211,107.8"/>
	<path class="st0" d="M241.3,104.1c-0.7-3.2-2.7-5.7-5-8c-0.2-0.2-0.6-0.4-0.9-0.4c-1.6,0.1-3.7,2.2-3.6,3.8c0,1.3,0.5,2.5,1.2,3.7
		c0.1-0.3,0.3-0.5,0.3-0.6c-0.2-1.5,0.8-2.2,1.9-2.8c0.7-0.4,1.3-0.3,1.8,0.3c0.5,0.6,0.9,1.3,1.3,1.9c0.4,0.6,0.9,1.3,1.4,2
		c-1.9,1.1-3.6,2.1-5.5,3.3c-1.1-1.5-2.1-2.8-3-4.2c-0.3-0.4-0.3-1.1-0.1-1.6c0.4-1.2,0.1-2.2-0.9-3.2c-1.4,0.1-3,0.2-4.5,0.3
		c-0.1,0.5-0.3,0.8-0.3,1.2c-0.2,1.2,0,2.2,0.8,3.1c0.6,0.8,1.5,0.3,2.2,0.2c0.7-0.1,1.1,0.1,1.2,0.8c0.1,0.4,0.2,0.8,0.3,1.1
		c0.4,3.2,2.5,5.4,4.4,7.8c2.1-1.4,4-2.8,5.9-4c1.3-0.8,1.9-1.8,1.6-3.4C241.5,105.1,241.4,104.6,241.3,104.1"/>
	<path class="st0" d="M191.4,120.6c-0.2-0.7-0.4-1.4-0.6-2c-0.4-1.3-0.7-2.8-1.4-3.9c-1.7-3-0.9-2.8-4.3-1.9c-2,0.5-4,1.7-6.3,0.3
		c-0.3,1.1-0.7,2-0.8,2.9c-0.2,1.1,0.8,2,2,2c0.4,0,0.9-0.1,1.3-0.2c1.7-0.4,3.4-0.8,5-1.3c0.7-0.2,1.2-0.1,1.6,0.5
		c0.6,1.2,1.3,2.5,1.4,4c-0.8,0.2-1.6,0.5-2.4,0.7c-1.5,0.4-2.9,0.7-4.4,1.1c-1.7,0.4-1.9,0.7-2.1,2.3c-0.1,0.4-0.1,0.9,0,1.3
		c0,1.5,0.3,1.6,1.7,1.2c1.3-0.4,2.7-0.9,4-0.9c0.8,0,1.4-0.2,2-0.5c0.4-0.3,0.9-0.4,1.3-0.7c0.6-0.4,1.4-0.6,1.8-1.1
		c0.7-0.8,1.3-1.8,1.8-2.8c0.3-0.5,0.5-1.1-0.1-1.7C192.6,120.1,192.1,120.3,191.4,120.6"/>
	<path class="st0" d="M248.8,96.3c-0.1-0.9-0.3-1.7,0.1-2.6c0.6-1.4,0.2-2.7-0.7-3.7c-1.1-0.1-2-0.2-3-0.3c-0.4,1.2-0.4,2.4-0.2,3.6
		c0.1,0.4,0.6,1,0.9,1c1.2,0.2,1.5,1,1.7,2c0.2,1.1,0.5,2.2,0.5,3.3c0,1,0.1,2-0.9,2.9c-0.6-0.8-1.1-1.5-1.7-2.1
		c-1.1-1.1-1.6-2.4-1.2-4c0.3-1.3-0.2-2.4-0.9-3.5c-0.4-0.6-0.9-0.8-1.6-0.7c-0.7,0-1.4-0.1-2.2-0.2c-0.1,1-0.4,2.1-0.4,3.3
		c-0.1,1.8,0.3,2,2,2c0.4,0,0.7,0,1,0.1c0.4,1.4,0.6,2.6,1.1,3.8c0.5,1.2,1.2,2.3,1.9,3.5c-0.7,0.7-1.5,1.5-2.2,2.3
		c-0.3,0.3-0.7,0.7-0.7,1.1c-0.2,1.4-0.3,2.8,0.9,3.9c0.7-0.8,1.5-1.5,2.2-2.3c0.8-0.8,1.5-1.6,2.3-2.4c1.3-1.3,2-2.9,1.8-4.7
		C249.3,100.4,249.1,98.3,248.8,96.3"/>
	<path class="st0" d="M148.2,122.8c-0.1-1.3,0.1-2.6,0.1-3.8c0-1.5-0.2-1.6-1.6-1.5c-2.1,0.2-4.2,0.3-6.3,0.4c-1.3,0-2.6,0-3.4-1.3
		c-0.2-0.2-0.5-0.3-1.1-0.7c-0.3,1.8-0.7,3.3-0.9,4.8c-0.1,0.9,0.3,1.5,1.2,1.8c0.5,0.2,1.1,0.2,1.6,0.2c2.1-0.1,4.1-0.2,6.2-0.2
		c1.4,0,1.8,0.2,1.7,1.6c-0.2,2.5,0.8,4.6,1.5,6.8c0.1,0.3,0.5,0.7,0.8,0.7c0.3,0,0.8-0.3,0.9-0.5c0.3-0.5,0.5-1,0.5-1.6
		c0-1-0.1-2.1-0.3-3.1C148.8,125.1,148.3,124,148.2,122.8"/>
	<path class="st0" d="M224.1,101.9c-0.3-0.5-0.8-0.7-1.3-0.5c-2,0.8-3.9,1.6-5.9,2.4c-0.9,0.4-1.8,0.9-2.6,1.4
		c-0.7,0.4-1.3,0.5-2-0.3c-0.7,1.7-0.4,3,0.3,4.2c0.8,1.4,2.2,1.4,3.3,0.2c0.3-0.3,0.6-0.6,1-0.8c1.4-0.9,2.9-1.7,4.4-2.5
		c1-0.6,1.6-0.4,2.3,0.5c1.5,2,2.7,4.1,3.6,6.4c0.1,0.3,0.4,0.6,0.9,1c0.9-2.2,1-4.2,0-6C226.9,105.9,225.4,103.9,224.1,101.9"/>
	<path class="st0" d="M137.5,133.1c2.4-2.4,1.8-5.1,1-7.9C135.9,127,135.4,131.3,137.5,133.1"/>
	<path class="st0" d="M558.5,141c0.1,0.1,0.1,0.2,0.1,0.3c-0.2,0.6-0.4,1.2-0.6,1.9c2.7,0.7,3.6,0.3,4.3-2.2c0-0.1,0-0.1,0-0.2
		c0.5-1.1,0.1-1.9-0.8-2.5c-0.7-0.5-1.4-1.1-2.2-1.8c1.1-0.6,1.1-0.6,1.7-0.2c0.8,0.7,1.6,1.4,2.5,2c2,1.4,4,2.7,6.1,4.1
		c2.1-1.4,2.1-2.8,0.6-4.6c-0.3-0.4-0.8-0.7-1.3-1.1c-0.5-0.4-1.1-0.7-1.7-1.1c1.5-1.1,2.4-2.4,2.6-4.2c-1-0.9-2.1-1.7-3.1-2.6
		c-1.7,1.5-2.4,2.9-2,4.8c-1.9-1-3.2-2.6-4.6-4c-1,0.5-2.5,2.2-2.6,3c0,0.4,0.2,0.8,0.5,1.1c0.3,0.4,0.7,0.8,1.1,1.2
		c-0.4,0.7-0.8,1.2-1.1,1.7C556.8,138.5,556.9,139.5,558.5,141"/>
	<path class="st0" d="M532.1,136.1c0.3-1.7,0.4-3.4,0.6-5.1c0.1-0.7,0.2-1.4,0.4-2.2c1.4,0.3,2.5,0.5,3.6,0.7
		c0.9,0.1,1.2,0.7,1.2,1.5c-0.1,2.7-0.2,5.5-1.2,8.1c-0.1,0.2-0.1,0.5-0.1,0.8c2-0.6,3-1.7,3.5-3.8c0.5-2.5,0.9-5,1.2-7.6
		c0.2-1.9-0.2-2.3-2-2.6c-2.8-0.5-5.8-0.5-8.4-2.4c-0.7,1.2-1.3,2.4-1.9,3.5c-0.3,0.6-0.1,1.1,0.5,1.4c0.7,0.4,1.4,0.7,2.2,1
		c-0.7,1.8-1.4,3.6-2.2,5.5c-0.6,0-1.2-0.1-1.8-0.1c-0.9,1.1-1.5,2.3-1.5,3.8c0.8,0,1.5,0,2.2,0.1
		C530.2,138.7,531.7,137.9,532.1,136.1"/>
	<path class="st0" d="M505.7,122c0.2,0.1,0.3,0.3,0.5,0.5c-2.6,2.9-2.5,6.6-3.1,10.1c1.8-0.3,3-1.5,3.4-3.4c0.2-1,0.3-2,0.5-3
		c0.2-1.1,0.5-2.3,1.3-3.3c1.2,0.4,2.5,0.8,3.7,1.1c0.8,0.2,1,0.7,0.9,1.5c-0.2,1-0.3,2-0.4,3c-0.3,2.1-0.5,4.3-0.8,6.8
		c1.3-0.5,2.3-0.8,2.7-1.9c0.3-0.9,0.6-1.9,0.7-2.9c0.4-2.5,0.3-5.1,1.8-7.4c0.1-0.1,0.1-0.2,0.1-0.3c0.3-1.2-0.1-1.9-1.4-2.2
		c-0.6-0.1-1.3-0.4-1.9-0.6c-1.6-0.5-3.2-1-4.8-1.5c-0.6-0.2-1.3-0.1-1.7-0.8c-0.1-0.2-0.9-0.3-1.2-0.1
		C504.2,118.5,504.1,120.9,505.7,122"/>
	<path class="st0" d="M543.1,131.1c1.3,0.8,1.3,0.9,0.6,2.2c-0.5,0.9-1,1.9-1.1,2.9c-0.1,1.3,0.1,2.6,0.2,3.8c0,0.5,0.2,1,0.3,1.5
		c0.9,0,1.6-0.1,2.4-0.1c0.8,0,1.6,0,2.3-0.1c1.2-0.1,2.1-0.6,2.7-1.7c0.7-1.3,1.4-2.5,2.1-3.8c0.2-0.4,0.7-0.7,1.1-0.9
		c1.3-0.7,2.1-1.9,2.5-3.2c0.3-1.1-0.8-1.6-1.4-2.3c-0.2-0.3-0.5-0.6-0.8-1c-0.5,0.8-0.9,1.5-1.5,2c-1,1-1.3,1.9-0.3,3
		c0.2,0.2,0.2,0.6,0.1,0.9c-0.7,2.2-2.8,3.6-5.1,3.2c-1-0.2-1.3-0.7-0.9-1.5c0.4-0.8,1-1.5,1.5-2.2c0.1-0.1,0.3-0.2,0.4-0.3
		c0.3,0.3,0.6,0.5,0.8,0.8c2.9-2.4,3-4.8,0.3-6.3c-0.4,0.5-0.9,1.1-1.3,1.7c-0.6,0.9-1.5,1.7-0.6,3c0.1,0.1,0.1,0.4,0,0.5
		c-0.6,1-1.2,1.9-2,3.2c-0.2-0.9-0.3-1.5-0.4-2c-0.2-0.9-0.1-1.6,0.8-2.3c0.6-0.5,0.9-1.6,1.1-2.5c0.1-0.5-0.3-1.2-0.7-1.6
		c-0.6-0.5-1.3-0.8-2.1-1.3c-1.1,1.1-2.1,2.3-1.6,4.1C542.8,131,543,131.1,543.1,131.1"/>
	<path class="st0" d="M499.1,123c2,0,3.4-1.1,4.4-2.8c1-1.8,0.8-2.6-1-3.6c-0.1-0.1-0.1-0.2-0.2-0.3c0.1-0.6,0.3-1.2,0.5-2.1
		c-2.4,1.4-3.6,3.2-4.2,5.6c0.8,0.4,1.5,0.7,2.2,1C500.7,122,499.9,122.4,499.1,123"/>
	<path class="st0" d="M349.4,51.6c1.2,0,2.3-0.9,2.7-1.9c0.1-0.1,0.6-1.6-0.4-2.9c-0.7-0.9-1.7-1.3-2.8-1.1
		c-1.4,0.2-2.6,1.6-2.5,3.2C346.7,50.4,348,51.6,349.4,51.6"/>
	<path class="st0" d="M338.4,51.1c0.5-1.2,0-3-1.4-3.8c-1.4-0.8-3.1-0.3-4,0.9c-0.8,1.2-0.7,2.8,0.1,3.7
		C334.6,53.5,337.6,53,338.4,51.1"/>
	<path class="st0" d="M324.9,54.3c0.1,0,1-0.4,1.2-1.3c0-0.1,0.2-0.7-0.1-1.3c-0.4-1-1.5-1.2-1.6-1.2c-0.8-0.1-1.7,0.2-2.2,1
		c-0.5,0.9-0.2,2,0.6,2.6C323.5,54.5,324.2,54.6,324.9,54.3"/>
	<path class="st0" d="M706.2,179.7c-1.7-1.6-4.8-4.7-10-6.1c-6.6-1.8-18-1.3-20.8-1.1c-0.3,0-1.3,0.1-1.5-0.3
		c-0.2-0.5,0.7-1.3,2-2.4c4.4-3.9,5.4-5,6.2-6.1c0.4-0.6,1.1-1.6,1.7-2.9c1.5,0.8,3.9,2,7.1,2.4c3.1,0.5,5.5,0.1,6.3,0
		c2.5-0.4,3.7-1.1,8.9-3.5c1.5-0.7,3.7-1.7,6.5-2.8c-0.2-1-0.6-2.4-1.4-4c-0.7-1.4-1.3-2.5-2.4-3.6c-1.6-1.4-3.5-1.8-4.8-1.9
		c-0.4,0.6-1,1.3-1.9,2.1c-2.6,2.5-5.5,3.8-5.6,3.7c-0.1-0.1,1.8-1.2,4.3-3.6c1-0.9,1.8-1.8,2.3-2.4c2.1-1.4,3.1-3,3.6-3.8
		c0.8-1.5,1-2.8,1.3-4.1c0.1-0.5,0.4-2.3,0.3-4.7c-0.1-1.4-0.3-3.3-1.1-5.6c-1.6,1.7-2.9,3.1-3.8,4c-1.2,1.3-1.7,1.7-2.3,2.5
		c-1.4,1.7-1.9,2.5-2,2.4c-0.4-0.2,3.1-5.9,4.5-13.6c0.3-1.4,1.6-8.5-0.3-9.3c-0.9-0.4-3.1,1.7-7.4,5.9c-3.7,3.6-5.2,5.9-6,7.1
		c-1.1,1.7-1.9,3.1-2.4,4.2c0.6-1.1,1.5-3.3,1.2-6.1c-0.6-5.8-6-8.8-6.5-9.1c-0.5,0.8-1.1,1.6-1.6,2.4c-1.1,1.5-2.2,2.9-3.3,4.2
		c-0.1-0.3-0.3-0.5-0.3-0.7c-0.3-1.9-1.2-3.5-2.1-5.1c-1.4-2.4-4.9-5.1-8-6.4c-5.1-2.1-11.6-1.8-16.4,1.3c-0.5,0.3-3,2-5.2,5.2
		c-1.7,2.6-2.4,4.9-2.5,5.4c-0.4,1.5-2.2,8.3,1.4,11.4c1.9,1.6,4.8,1.7,5.1,1.7c0.8,0.2,1.7,0,2.5-0.3c2.7-0.8,4.2-3,5.4-5.4
		c0.3-0.6,0.5-1.4,0.9-2.3c-0.5,0.2-0.7,0.3-0.8,0.3c-1.1,0.8-2.4,0.8-3.4,0.2c-0.8-0.5-1.1-1.5-1.4-3c-0.2-1-0.6-2.8,0.3-4.4
		c0.2-0.3-0.2-0.4,1.2-1.7c0.5-0.5,1.1-1.3,1.1-1.9c0-0.9,0.4-1.2,0.5-1.5c0.7-1.8,7.1-2.5,12.6,0.1c1.1,0.5,4.1,2.1,6.1,5.5
		c0.7,1.2,1.1,2.2,1.3,3c-0.5,0.8-1.1,1.8-1.6,3c-0.5,1.3-0.8,2.5-1,3.4c1,0.8,2.2,1.9,3.2,3.3c2.2,3,3,6.1,3.2,7.9
		c-3-8.3-8.8-13-12.3-12.5c-3.1,0.4-5.3,2.2-5.3,2.2c-0.7,0.6-1.2,1.2-1.5,1.6c3.1,1.3,4.6,3,5.4,4.3c1.2,2,0.6,2.9,2,7.8
		c0.7,2.5,1.2,4,2.3,5.9c0.5,0.8,1.7,2.5,3.8,4.1c1.7,1.3,3.4,2.1,4.5,2.5c-0.2,0.4-0.3,0.7-0.5,1c-1,1.4-2,2.7-2.9,4.1
		c-0.8,1.3-1.5,2.7-2.2,4.1c-0.6,1.3-1.1,2.7-1.7,4c-0.2,0.4-0.7,0.9-1.2,1c-2.7,0.7-5.1,1.6-9,2.2c-3,0.4-4.6,0.7-6.6,1.2
		c-1,0.3-2.8,0.5-5.1,0.9c-0.6,0.1-1.3,0-2,0c0.2-0.3,0.2-0.5,0.3-0.6c2.9-2.9,5.5-6.1,6.8-10.1c0.2-0.5,0.7-0.9,1.2-1.3
		c1-0.7,2.1-1.2,3.2-1.8c2.7-1.5,4-4,4.4-6.9c0.5-3.2-1.2-5.3-3.3-7.3c-0.9-0.9-2.2-1.5-3.4-2c-1.1-0.5-2.2-1.1-3.3-1
		c-3.8,0.2-7.2,1.6-9.6,4.7c-2.1,2.6-3,5.4-1.2,8.5c0.1,0.1,0.1,0.3,0.2,0.5c1.5,3.1,3.6,5.4,7.2,5.8c0.6,0.1,1.3,0.3,2.2,0.5
		c-0.4,0.8-0.6,1.6-1,2.2c-2.2,3.7-5.4,6.4-9,8.6c-2.1,1.3-4.3,2.1-6.8,2.2c-3.2,0.1-6.4,0.1-9.6,0.3c-3,0.1-5.2,0.1-7.9-0.8
		c-0.8-0.3-1.4-0.5-1.8-0.7c3.5-1.1,5.6-2.8,6.9-4.1c2.3-2.3,5.3-7.2,7.4-9.5c1.3-1.5,2.1-2,3.1-2.4c1.1-0.4,2.2-0.5,3.5-0.2
		c0.6,0.1,1,0.2,1,0c0.2-0.3-1.4-1.6-3.1-2.4c-2.7-1.2-5.2-0.9-6.5-0.7c-1.8,0.2-3,0.7-3.3,0.8c-0.4,0.2-2.3,0.9-4.2,2.7
		c-2.7,2.6-3.9,6.3-6.2,13.8c-0.1,0.5-0.3,0.9-0.3,1.1c-0.4-0.1-0.7-0.2-1.1-0.3c-0.3-0.7-0.7-1.5-1.3-1.6c-0.3,0-0.4,0-1,0.5
		c-0.7,0.5-1.5,0.8-2.3,0.9c-0.6,0-1.1-0.1-1.3-0.2c-1.3-0.4-5-1.1-10.9-2.2c-1.9-0.3-1.6-0.4-2.7-0.7c-0.8-0.2-12.3-1.4-17.9-2.6
		c-1-0.2-2.6-0.6-4.6-1.2c0.4-0.3,0.8-0.6,1.3-0.8c1.6-0.2,5.9-0.9,9.2-4.3c0.9-0.9,2.5-2.6,3.3-5.4c0.5-1.7,0.4-3.1,0.4-4.1
		c-0.9-0.1-2-0.2-3.1-0.2c-1.6,0-3,0.2-4.1,0.4c-0.8,0.3-2.2,1-3.4,2.4c-0.6,0.7-0.9,1.3-1.3,2.1c-0.4,0.8-1.1,2.3-1.5,4.2
		c-0.2,0.9-0.3,2.2-0.2,3.8c-0.6,0.4-1.3,0.8-1.9,1.2c-4.8,0.8-8.7,1.6-11.3,2.2c-7.1,1.6-14.3,3.5-18.1,4.6
		c-4.1,1.1-4.2,1.3-5.5,1.5c-4.5,0.6-9,1.2-13.5,0.9c-1.5-0.1-2.9-0.3-4.4-0.3c-0.6,0-1.3,0.3-2.1,0.4c-2.1-0.1-4.3-0.1-6.6-0.1
		c-0.9,0-1.8,0-2.7,0c-0.9,0-1.9-0.1-3-0.2c-1.6-0.2-3.1-0.5-4.4-0.8c2.3-1.1,4.8-2.4,7.4-3.9c1-0.6,1.9-1.2,2.8-1.8
		c0.7,0.5,1.6,1.1,2.8,1.6c2.7,1.1,5.2,0.9,6.5,0.7c2.5-0.2,4.6-1.8,5.4-4c0.6-1.9,0.2-3.9-0.8-5.3c-1.6-2.2-5.2-2.9-8.6-1.4
		c0,0,0,0,0,0c0,0,1.3-0.8,3-1.8c0.5-0.2,0.9-0.5,1.4-0.7l3.9-2.2c0.6-0.4,2.8-1.1,4.9-0.2c0.5,0.2,1.5,0.7,2,1.7
		c0.3,0.6,0.5,1.9,0.5,2.1c0.1,0.6,0.1,0.9,0.4,1.2c0.2,0.2,0.5,0.3,1.1,0.4c0,0,0.5,0.1,1.3,0.4c0.3,0.1,2.2,1,2.4,2.6
		c0.2,1-0.4,1.9-0.7,2.3c-1.2,1.8-3.1,2-3,2.5c0.1,0.5,1.8,0.7,3,0.7c1.1,0,3.7,0,6.5-1.7c1.6-1,2.7-2.2,3.5-3.2
		c0.2-0.2,1.3-2.3,1-4.5c-0.6-4.8-7.8-7.2-9.5-7.7c-5.6-1.8-10.4-0.5-11.4-0.2c-3.9,1.1-6.5,3.3-8,4.8c-0.5,0.4-1,0.8-1.5,1.3
		c-0.9,0.8-1.8,1.5-2.7,2.1c0.6-0.8,1.4-2.1,1.9-4.1c0.3-1.2,0.7-3.4-0.4-5.6c-0.2-0.5-1.2-2.4-3.5-3.2c-0.4-0.1-1.8-0.6-3.5-0.1
		c-2.8,0.9-3.8,4.2-4,4.9c-1,3.6,0.7,6.7,1.1,7.4c-0.5-0.4-1.4-1-2.6-1.3c-1.2-0.4-2.2-0.3-2.8-0.3c-1.5,0.1-2.7,0.4-3.6,0.8
		c-0.4,0.3-2.2,1.6-2.5,3.9c-0.4,2.9,1.9,4.9,2.4,5.4c2.6,2.3,6.8,2.5,10.8,0.6c-1.8,1-3.5,1.9-5.3,2.9c-0.8,0.5-1.9,1-3.3,1.4
		c0,0-1.8,0.5-3.5,0.5c-0.2,0-0.4,0-1.8-0.1c-2.4-0.1-4.3-0.3-5.6-0.4c-0.1,0-0.4-0.1-0.9-0.2c-2.6-0.5-5.9-1.5-8.4-2.2
		c-1.5-0.5-2.7-1.1-3.5-1.6c-0.7-0.4-3.8-2.2-5.6-4.5c-0.2-0.3-0.7-0.8-1.1-1.4c-0.7-0.9-1.3-1.7-1.7-2.2l0,0c0,0-1.2-1.3-1.9-2.5
		c1.8-0.1,4-0.4,6.5-1.1c3.1-0.8,5.6-1.9,7.5-2.9c0.9,0.5,2.3,1.1,4,1.2c0.7,0,4.2,0.3,6.6-2.3c1.1-1.2,1.5-2.4,1.7-2.9
		c0.9-3.3-0.5-7.3-3.6-9.2c-2.1-1.3-4.3-1.1-5.2-1.1c-1,0.1-3.5,0.3-5.4,2.3c-1,1-1.6,2.4-1.9,4.1c-0.1,0.8-0.3,2.2,0.4,3.7
		c0.6,1.3,1.6,2,2.1,2.3c-1.5,0.7-3,1.4-4.5,2.2c-1.5,0.7-3.8,1.4-6.7,1.5c-1,0-2-0.1-2.8-0.2c-0.5-1-1.3-2.5-2.1-4.1
		c-2.9-5.8-2.7-5.9-3.8-7.6c-1-1.4-1.4-1.7-4.8-6c-0.3-0.4-0.6-0.8-1-1.3c0.5-0.3,0.7-0.5,1-0.6c0.4-0.2,2.6-1.3,5.2-0.9
		c1.8,0.3,1.8,1,3.4,1.3c1.7,0.3,3.2-0.2,4.3-0.6c-0.1-0.2-0.2-0.5-0.3-0.7c-1.2-2.2-3-3.7-5.1-5.2c-3.4-2.3-7.1-2.5-10.9-1.9
		c-1.5,0.2-3,0.6-4.4,1c-1.4,0.4-2.6,0.3-3.9-0.4c-1-0.5-2.1-1-3.2-1.4c-2.1-0.8-4.3-1.5-6.5-2.3c-5-1.7-10.1-2.9-15.5-2.6
		c-0.1,0-0.2-0.1-0.3-0.2c0.5-1.1,1.5-1.2,2.5-1.4c0.8-0.2,1.6-0.4,2.1-1.2c0.2-0.3,0.5-0.5,0.8-0.6c2.9-1.7,3.8-4.4,4.1-7.5
		c0.1-1.1-0.2-2.1-1.3-2.7c-1.1-0.7-2.1-1.5-3.1-2.2c0.4-1.1,0.5-1.2,1.3-0.9c0.4,0.1,0.8,0.3,1.3,0.4c3.1,1,6.3,1.9,9.4,3
		c2.8,1,5.5,2.1,8.3,3.3c3.3,1.3,6.7,2.6,9.9,4.2c2.8,1.3,5.4,3,8.1,4.4c5,2.7,9.9,5.4,14.9,8c2.8,1.4,5.6,2.8,8.5,4.1
		c4,1.7,8.1,3.2,12.1,5c1.7,0.7,5,1.8,9.2,3c9.8,2.9,17.8,4.2,26.1,5.6c1.6,0.3,3.4,0.6,3.4,0.6c4.1,0.6,8,1.2,9.9,1.4
		c7.4,0.9,14,1,24.4,1c0.6,0,0.4,0,3.6,0c1.8,0,2.4,0,3.2-0.1c0,0,0.4,0,0.9-0.1c6-0.5,9.7-1.2,9.7-1.2c2.2-0.5,5.2-1.2,8.7-2.6
		c0.3-0.1,0.9-0.2,1.6-0.1c1.2,0.2,2.1,0.9,2.6,1.4c0.5,0.4,0.9,0.9,1.3,1.5c1.3,2,2.2,4,1.6,6.4c-0.2,1-0.2,0.7-0.2,1.7
		c0,0.9-0.2,3.7,1.6,6.4c0.3,0.4,0.8,1.1,1.5,1.8c0.2,0.1,0.5,0.3,0.9,0.5c2.1,0.9,4.8,0.5,5-0.3c0.2-0.8-1.9-1.2-3.9-3.8
		c-0.3-0.4-1.3-1.8-2-3.7c-1.1-3.3,0-4.4-1.2-7.6c-0.3-0.9-0.9-2.2-2.1-3.4c-1.5-1.4-3.3-1.8-4.2-2c0.9-0.6,2.3-0.9,4-1.5
		c0.2-0.1,0.6-0.1,0.8,0c2.7,0.6,4.9,1.9,6.6,4.1c0.2,0.3,0.6,0.9,0.9,1.7c0.8,1.9,0.4,3.1,0.6,4.7c0.3,2.9,2.6,5.7,5.2,6.4
		c1.3,0.3,2.8,0.1,3-0.5c0.3-0.9-2.6-1.7-4-4.9c-0.4-0.9-0.7-0.8-0.8-2.8c-0.1-1.6-0.7-3.3-1.8-4.6c-2-2.1-4.2-4.1-7.1-4.8
		c-0.2-0.1-0.5-0.2-0.7-0.4c0.1-0.2,0.1-0.4,0.2-0.5c1.2-1,1.8-1.5,3.4-2.9c0.2-0.1,0.5-0.4,1-0.5c0,0,0.4-0.1,0.9,0
		c0.7,0.2,6.5,2.2,6.9,7.1c0.1,1.4,0.7,2.8,1.2,4.2c0.2,0.5,0.6,0.9,0.9,1.4c0.6,0.8,1.9,2.4,4,3.3c1.3,0.5,3.6,1.1,3.9,0.5
		c0.6-1-5.2-3.5-6.1-8.2c-0.1-0.6-0.2-1.6-0.8-3.1c-0.3-0.7-0.8-2-1.9-3.2c-1.7-1.9-3.9-2.8-6-3.3c-0.6-0.2-1.2-0.3-1.9-0.5
		c0.1-0.4,0.1-0.6,0.1-0.8c0.3-0.8,0.7-1.5,1.1-2.3c0.3-0.6,0.7-0.9,1.1-1.2c1.1-0.8,2.5-0.5,3.4-0.3c3.1,0.6,5.1,2.8,5.2,3
		c1.5,1.7,1.4,2.8,2.8,5.6c1.1,2.2,2.4,3.9,3.4,5c0.5,0.6,2,2.1,4.3,2.6c1.3,0.3,3.7,0.4,4-0.3c0.4-1-3.3-2.1-6.9-5.7
		c-4.3-4.4-3.7-7.2-7.5-10c-1.7-1.3-4.2-2.4-7.8-2.7l0.9-2.8c1.4-0.5,5.6-1.8,9.8-0.3c0.8,0.3,2.3,0.9,3.6,2.2c1,1,1.3,1.9,2.1,3.4
		c0.7,1.2,1.6,3,3,5c1.2,1.2,3.5,3,6.2,2.9c0.4,0,1.6-0.1,1.8-0.6c0.2-0.6-1.5-1.6-2.9-2.4c-1.1-0.5-2.7-1.5-4-3
		c-1.4-1.6-1.4-2.5-2.3-4c-1.7-2.9-5.2-6-9.1-6.5c-2-0.2-4.6,0-5.8,0.3c-0.7,0.2-1.4,0.2-2.1,0.4c0-0.7,0-1.2,0-1.7
		c-0.1-3.5-1.3-6-1.9-7.4c-0.8-1.7-2.5-5.7-6.6-9.1c-1.1-0.9-8.3-6.6-17.3-4.7c-1.4,0.3-5.3,1.2-8.8,4.5c-1.6,1.5-3.9,3.6-4.5,7.2
		c-0.4,2.4,0.1,4.5,0.5,5.6c-2.8,0.1-6.4,0-10.6-0.2c-1-0.1-4.1-0.3-8.3-0.8c-3-0.4-7-1.2-15-2.8c-3.6-0.7-6-1.3-9.2-2.1
		c-6.5-1.7-11.1-3.2-19.1-6c-7.7-2.7-11.6-4-16.2-6c-7.3-3.1-12.6-6-14.4-6.9c-4.1-2-7.9-4.4-11.6-7c0,0,0,0,0,0c0,0,0,0,0,0
		c-4.7-3-7.7-5-9.7-6.4c-0.3-0.2-1-0.7-2-1.4c-2-1.4-4-2.7-5.9-4c-1.7-1.2-3.3-2.6-5.1-3.5c-3.5-1.7-7.1-3.2-10.7-4.8
		c-7.5-3.3-10-3.3-11.1-3.4c-2.5-0.3-4.6-0.2-6,0c-1.3-2.2-2.9-3.3-3.8-3.9c-0.7-0.4-1.5-0.9-2.6-1.1c-2.1-0.3-4.3,0.7-4.4,1.6
		c0,0.6,0.9,0.7,1.2,1.7c0.5,1.4-0.7,2.9-0.8,3c-1.1,1.4-2.8,1.6-3.6,1.7c-0.2,0-0.6,0.1-1,0.1c-0.2,0-2.3-0.2-3.7-1.7
		c-1.8-1.9-2.2-5.5-0.6-6.7c0.3-0.2,1-0.6,2.3-0.4c0.5,0.5,1.1,1.2,1,1.9c-0.1,1-1.3,1.4-1.2,1.7c0.1,0.4,2.6,0.4,4.2-0.9
		c2.5-2.1,1.6-6.6,1.4-7.4c-0.2-1-1.4-5.3-5.7-7c-3.7-1.5-7.3,1.2-7.7,0.4c-0.4-0.7,2.8-3.5,6.8-5.4c0.9-0.4,3.3-1.5,9.8-2.7
		c2.5-0.4,5.9-1,10-1.3c-1-2.3-2.9-5.5-6.3-8.2c-1.5-1.1-7.1-5.6-13.8-4.3c-2.8,0.5-4.7,1.9-5.4,2.4c-3,2.2-4.2,5.2-4.6,6.4
		c-0.3-0.3-1.1-0.8-2.1-1c-0.6-0.1-1.2-0.1-1.6,0c0.5-4.1,0.5-7.1,0.4-7.7c-0.1-0.8-0.2-1.7-0.2-1.7c-0.3-1.6-0.7-2.7-1.2-6
		c-0.3-1.8-0.6-3.4-0.7-4.4c0.7-0.4,2.6-1.6,3.8-4c1.1-2.3,0.9-4.4,0.8-5.2c-0.5-1.6-1-3.1-1.5-4.7c-1.4,1.2-2.7,2.3-4.1,3.5
		c-0.5,0.5-1.7,2-2.1,4.2c-0.5,3,1,5.3,1.3,5.8c-1.7,2-3,3.7-3.9,4.8c-1.6,2.1-2.4,3.3-4.1,5.5c-1.1,1.4-2.1,2.6-2.7,3.3
		c-0.3-0.3-0.8-0.6-1.4-0.8c-1.2-0.5-2.3-0.4-2.8-0.3c0.4-0.3,0.7-0.6,1.1-0.9v0c1.4-1.3,1.5-3.5,1.5-4.4c0-0.9,0-3.5-1.9-5.7
		c-0.6-0.7-1.5-1.9-3.3-2.3c-2-0.5-3.7,0.4-4.2,0.6c0.4-0.5,1.8-2.7,1.2-5.5c-0.3-1.6-1.1-2.6-1.5-3c-1.9-2.4-4.7-2.8-5.7-3
		c-0.3-0.1-6.3-1-9.1,3c-1.5,2.1-1.4,4.5-1.3,4.7c0.1,1.2,0.5,2.2,0.8,2.7c-0.9-0.1-2.5-0.3-4.3,0.4c-0.4,0.2-4,1.6-4.8,5.2
		c-0.4,2,0.2,3.7,0.3,4.1c0.4,0.9,0.8,1.5,1.2,2c-0.3,0-0.9-0.1-1.6,0.1c-0.7,0.2-1.1,0.5-1.4,0.7c-1.5-1.8-2.7-3.3-3.5-4.3
		c-2-2.5-3.1-3.8-3.3-4.1c-0.8-1.1-1.5-2.3-3-3.7c-0.5-0.4-0.9-0.8-1.2-1c0.1-0.1,0.1-0.3,0.2-0.5c0.5-1.1,1.9-4,1.2-7
		c-0.8-3.4-4-5.1-4.5-5.4c-0.8,1.2-1.7,3.2-1.9,5.6c-0.1,1.2-0.2,2.6,0.5,4.2c0.9,1.9,2.4,2.9,3,3.2c-0.9,3.1-1.7,5.8-2.3,8.2
		c0,0-0.7,2.6-1,5.5c0,0.4-0.1,0.8,0,1.3c0.1,1.6,0.6,2.9,1,3.7c-0.9-0.2-2.4-0.4-4.2-0.1c-1.6,0.2-2.8,0.7-3.6,1.2
		c-0.8-1.1-2.3-2.9-4.8-4.3c-0.6-0.4-2.5-1.4-4.9-1.8c-6.4-0.9-12.4,3.7-14.5,7.4c-1.2,2.2-1.6,4.5-1.6,4.5
		c-0.2,1.2-0.2,2.1-0.2,2.8c0.8,0,2.2-0.1,3.9-0.1c4,0,7.4,0.1,11.3,1.4c0.9,0.3,2.1,0.7,3.5,1.6c2.4,1.4,4.1,3.1,5,4.3
		c-0.8,0.1-2.2,0.4-3.6,1.2c-0.7,0.4-2.7,1.5-3.9,4c-1.1,2.2-1.8,5.8,0.1,8.2c0.2,0.3,1.2,1.6,2.9,1.7c1.7,0.2,3.5-1.1,3.4-1.8
		c-0.1-0.6-1.8-0.5-2-1.2c-0.1-0.6,1-1.7,2.1-1.7c0.9,0.1,1.7,0.8,1.8,1.8c0.1,0.8,0.1,2.4-0.8,3.9c-1.5,2.1-3.1,3.6-4.3,3.8
		c-0.3,0-1.5,0.2-3.1,0.2h0c-0.5-0.1-2.2-0.5-3.3-2.1c-1.2-1.6-1.5-4-0.6-5.5c0.3-0.5,0.7-0.8,0.6-1c-0.3-0.7-3.1-0.4-5.2,0.3
		c-0.5,0.2-2.2,0.7-4,2c-1.1,0.8-2.9,2.2-4.4,4.5c-2.2-0.6-4.1-0.8-5.5-1c-0.7-0.1-3.2,0-6.5,0.2c-1,0.1-2,0.3-3,0.6
		c-1.8,0.5-3.7,1-5.5,1.5c-0.6,0.2-1.3,0.4-1.9,0.6c-3,1-5.5,2.8-8,4.5c-4,2.7-7.9,5.5-11.9,8.1c-3.4,2.2-6.9,4.3-10.4,6.4
		c-3.2,1.9-6.4,3.6-9.6,5.4c-2.5,1.4-5,3-7.6,4.2c-2.9,1.4-6,2.6-9,3.8c-3.9,1.5-7.8,2.8-12,3.3c-4.1,0.4-8.2,1-12.3,1.4
		c-1.2,0.1-2,0.2-2.8,0.3c-1.2,0.1-2.2,0.2-3,0.3c-1,0.1-1.7,0.1-1.9,0.2c-3.1,0.2-8.7,1.1-10.9,1.4c-1.7,0.2-4.1,0.6-7.1,0.9
		c-0.2-0.3-0.4-0.6-0.7-0.8c-0.6-0.6-1.3-0.9-1.7-1.1c-0.4,0.2-1.5,0.8-2,2c-0.1,0.3-0.2,0.5-0.2,0.7c-0.8,0.1-2.1,0.2-3.6,0.3
		c-5.6,0.5-7.2,0.8-9.9,1c-1.9,0.1-4.7,0.3-8,0.2c0.2-1.4,0.3-4.3-1-7.5c0,0-1.4-3.4-4.1-5.7c-5.9-5.2-17.4-4.5-25.1,0.9
		c-5.2,3.7-7.6,8.8-8.6,11.6c-2.4-0.7-4.4-0.6-5.5-0.5c-1.1,0.1-5,0.6-7.5,3.7c-0.2,0.3-0.5,0.8-1.1,1.8c-3.1,5.2-2.5,5.4-3.8,6.9
		c-1.8,2.2-5.6,4.7-8.6,5c-0.4,0-1.4,0.1-1.5,0.6c-0.2,0.5,1,1.3,1.7,1.7c0.3,0.2,1.9,1,4.4,0.6c4.1-0.6,6.6-3.9,6.7-4
		c1.6-2.3,0.7-3.1,2.7-7.1c1.1-2.1,1.8-3.7,3.6-5.1c0.6-0.5,3.1-2.3,6.3-1.9c0.8,0.1,1.5,0.3,1.9,0.5c0,1.1,0.1,2.4,0.2,3.7
		c0.1,0.8,0.2,1.5,0.3,2.2c-1.1-0.1-1.9,0.1-2.4,0.2c-3.2,1-4.8,4.8-5.4,6.4c-0.5,1.2-0.4,1.4-1,2.8c-0.7,1.5-1.2,2.8-2.3,4
		c-1.9,2.1-4.4,3.1-5.8,3.5c-2,0.7-3,0.7-3.1,1.2c-0.1,0.7,1.8,1.9,3.6,2.1c3.2,0.4,5.9-1.8,6.2-2.1c4.9-4.3,2.3-11.1,7-14.7
		c1.4-1,2.8-1.4,3.6-1.5c0.3,1.1,0.7,2.5,1.5,4c0.7,1.5,1.5,2.6,2.2,3.5c-0.9,0.2-2.2,0.5-3.5,1.5c-2,1.5-2.9,3.7-3.2,4.8
		c-0.4,1.7-1.1,3.3-1.7,4.9c-0.3,1-0.7,1.3-0.8,1.4c-0.3,0.5-1.3,1.7-3.7,2.6c-2.9,1.1-4.8,0.5-5,1.1c-0.2,0.6,2,2.2,4.5,2.5
		c3.5,0.5,6.9-1.6,8.2-3.8c0.2-0.3,0.6-1.2,0.9-2.3c0.3-1,0.3-1.7,0.3-2.5c0.2-2.4,0.4-5.1,2-6.6c0.6-0.6,1.3-0.9,1.5-0.9
		c0.6-0.2,1.3-0.4,2-0.1c0.6,0.3,0.8,0.7,1.7,2c0.6,0.8,1,1.4,1.3,1.7c-0.6,0.5-1.2,0.8-1.5,1.3c-1.3,1.9-2.4,3.9-2.2,6.3
		c0.1,0.8,0,1.6,0,2.3c0,1.2-0.4,2.3-0.8,3.1c-1.4,3.1-4.8,3.4-4.6,4.4c0.2,0.9,3.4,1.6,6,0.6c1.8-0.7,2.8-2.1,3-2.4
		c0.3-0.4,0.8-1.1,0.9-2.2c0.2-1.3-0.4-1.9-0.9-3.4c-0.2-0.5-1.2-3.1-0.5-5.6c0.2-0.7,0.7-2,2.1-3.2c1.4,0.8,3.2,1.7,5.2,2.3
		c0.8,0.3,1.6,0.5,2.4,0.7c-1.7,2.7-2.2,5-2.3,6.7c-0.1,1.8,0.3,2,0,3.4c-0.3,1.3-1.5,4.1-3.9,5.8c-0.5,0.4-1.2,0.7-1.1,1.1
		c0.1,0.7,2,1,2.1,1c2,0.3,4.4-0.5,5.6-2.2c0.8-1.1,1-2.3,0.9-3.9c-0.1-2.1-0.4-4.1-0.5-6.2c-0.1-1.5,0-2.3,0.5-3.2
		c0.5-1,1.3-1.5,1.8-1.9c3.7,1.1,6.8,1.7,9.2,2.1c1.2,0.2,8.5,1.1,17.1,1.2c1.8,0,3.7-0.1,5.5-0.2c2.4-0.2,4.8-0.5,7.2-0.5
		c4.4-0.1,5.2,0,12.4-0.1c0.9,0,2.6-0.1,4.7-0.2c1.5-0.1,2.8-0.2,3.8-0.3c0.9-0.1,2.3-0.3,3.9-0.5c4.5-0.6,6.8-0.7,9.3-1.3
		c4.3-1,8.5-1.9,12.8-2.8c1.3-0.3,2.6-0.7,3.9-0.9c4.3-0.6,8.5-1.6,12.6-2.8c4.4-1.3,8.7-2.6,13-4c2.2-0.7,4.4-1.5,6.6-2.5
		c3.1-1.4,5.9-3.2,9.1-4.2c0.3-0.1,0.6-0.3,0.9-0.4c2.4-1.5,4.8-3.1,7.3-4.5c4-2.2,8-4.2,12-6.4c1.9-1,3.8-2.2,5.6-3.3
		c0.7-0.4,1.5-0.8,2.2-1.2c2.3-1,3.6-1.5,5.1-2.1c1.3-0.5,3.1-1.4,5.2-2.9c1.5,2.6,3,5.1,4.4,7.7c-0.2-0.2-2.3-1.9-4.6-1.2
		c-1.2,0.4-1.8,1.2-2.2,1.6c-1.9,1.8-2.4,5.3-0.9,7.1c1.7,2,3.9,3.4,6.5,3.9c1,0.2,2.1,0.2,3.2,0.4c2.3,0.3,4.6,0.5,6.8,0.8
		c0.4,0,0.7,0.3,1,0.4c-2.7-0.2-5-0.1-6.8,0c-3.4,0.2-6.1,0.3-9.5,1.3c-1.5,0.5-3.9,1.1-6,2.6c-2.2,1.4-2.8,1.9-2.8,1.9
		c-1.1,0.9-1.3,1.2-2,1.4c-1,0.3-2,0.2-3.2-0.3c-1.7-0.6-3.4-1-5.2-1.3c-2.5-0.5-5.1-0.7-7.7,0c-1.4,0.4-2.9,0.7-3.1,2.3
		c-0.6,0.2-1.1,0.4-1.6,0.6c-2,1.1-2.5,2.9-3,4.8c-0.7-0.7-3.4-3.2-7.6-3.4c-1.1,0-5.2-0.2-7.6,2.9c-2,2.6-1.7,5.7-1.6,6.2
		c0.1,0.7,0.3,1.4,0.6,2.2c0.6,1.5,1.5,2.8,2.6,3.9c0.9,0.9,3.1,2.8,6.4,3.4c1.3,0.2,3,0.6,4.8-0.3c1.5-0.7,2.3-1.8,2.7-2.4
		c1.4,0.7,4.4,1.9,7.8,1c0.7-0.2,1.2-0.4,1.8-0.7c1-0.3,1.7-0.6,2.5-0.9c-0.5,1.1-0.8,2-1.2,2.8c-0.5,1-1.1,1.9-1.6,2.9
		c-3.2,2.4-6.5,5-9.7,7.7c-0.6,0.5-1.2,1-1.8,1.5c-2.7,1.6-8.2,4.4-15.6,4.6c0,0-7.2,0.2-14.1-2.8c-0.4-0.2-2-0.9-1.9-1
		c0-0.1,0.9,0.1,1.6,0.2c2.4,0.4,4.4-0.4,5.2-0.7c1.3-0.5,3.5-1.4,4.6-3.6c0.6-1.2,0.7-2.4,0.7-3.1c0-0.6,0.1-2.1-0.9-3.6
		c-1.7-2.7-4.9-2.8-5.4-2.8c-3.1-0.1-5.2,2.1-5.9,2.9c-1,1.1-1.6,2.2-1.9,3c0.1-0.8,0.2-1.9,0.1-3.3c-0.5-4.8-3.8-11-8.4-11.2
		c-1.7-0.1-3.6,0.6-4.8,2c-2.1,2.4-2,6.5,0.5,10.1c-0.5-0.4-0.9-0.8-1.4-1.1c0,0-2.4-1.9-7.9-4.6c0,0-0.1,0-0.1-0.1
		c-0.2-0.1-0.8-0.4-1.8-0.6c-1.3-0.3-2.8-0.4-3.1-0.4c-1,0-2.3,0.1-3.8,0.5c-2.1,0.5-3.7,1.4-4.7,2.1c-0.9,0.5-7.4,4.7-7.6,11.7
		c0,1.2-0.1,3.9,1.5,6c4.1,5.2,14.6,1.7,15.6,1.4c2.3-0.8,4.6-2,4.5-2.5c0-0.1-0.3-0.2-2.7-0.3c-0.9-0.1-1.6-0.1-2.2-0.1
		c-0.4-0.2-1.2-0.6-1.7-1.6c-0.8-1.5-0.2-3,0-3.4c0.9-2.5,3.3-2.4,4.5-4.4c0.8-1.2,1.2-3.2-0.1-6.8c0.5,0.1,1.2,0.3,2.1,0.5
		c0.5,0.2,2,0.8,4.6,2.3c1.3,0.8,2.8,1.8,4.7,3.4c1.5,1.3,2.7,2.5,3.6,3.3c-0.7-0.3-3.4-1.2-6.4,0c-2.5,1-5.1,3.6-5.1,6.5
		c0,4.1,5,7.3,9.2,7.4c5.1,0.1,8.4-4.4,8.8-5c0.7-0.9,1.1-1.8,1.3-2.5c1.2,1.3,2.4,2.1,3.2,2.6c1.7,1,3.3,1.6,5.7,2.4
		c0.9,0.3,1.7,0.5,2.2,0.7c-2.3,0.8-4.6,1.7-6.9,2.5c-2.8,1-5.7,2-8.5,3c-2.8,0.7-5,0.7-6.5,0.6c-2.5-0.2-4.1-0.8-6.7-0.3
		c-1.5,0.3-2.7,0.8-3.4,1.1c-2.4-0.3-4.4-0.7-5.9-1c0,0-5.7-1.2-12-3.4c-0.1,0-0.3-0.1-0.6-0.2c-0.5-0.2-1.5-0.5-4.7-1.5
		c-4-1.2-3.7-1.2-5.3-1.6c-1.7-0.4-3.3-0.8-5.6-1.1c-0.9-0.1-2.5-0.4-5.7-0.9c-1.5-0.2-3-0.4-4.6-1.5c-0.5-0.3-0.8-0.7-1.1-0.9
		c0.4,0,0.8,0,1.3-0.2c2.3-1.1,2.8-6.6,0.7-10.3c-1.4-2.4-3.6-3.5-5.4-4.3c-4-1.9-7.6-1.6-9.8-1.5c-2.5,0.2-5.7,0.5-8.3,2.8
		c-1.6,1.4-2.6,3.3-2.3,3.6c0.3,0.3,1.4-0.9,3.8-1.5c1.6-0.4,3-0.3,3.7-0.3c0.9,0.1,2.6,0.2,4,1c1.8,1,1.6,2.1,4.2,6.3
		c2.4,3.8,3.7,4.7,5,4.9c0.7,0.1,1.3,0.1,1.7,0c1,0.7,1.1,1,1.1,1.2c-0.2,0.5-2.6-0.5-6.3-0.5c-2,0-3.6,0.2-5.1,0.5
		c-1.6,0.2-2.8,0.5-3.7,0.7c-4.3,1.1-5.9,1.7-8.4,2.3c-1.6,0.4-3.8,0.6-8.1,1.1c-1.7,0.2-3.9,0.4-6.3-0.6c-0.4-0.2-0.8-0.4-1-0.5
		c0.3,0.3,0.6,0.6,0.8,0.9c-0.3-0.4-0.6-0.7-0.6-0.7c0,0-0.1-0.2-0.1-0.2c-1-0.8-1.8-1.4-2.4-1.7c-0.6-0.3-1.2-0.6-1.8-1.2
		c-0.5-0.5-0.8-0.9-1-1.2c1-1.5,1-2.7,1-3.3c-0.1-3.2-3.2-5.5-5.4-6.3c-1-0.4-1.8-0.4-2.3-0.5c-2.3-0.2-4.1,0.4-5.1,0.8
		c0.5,0.4,1.4,1.2,2,2.5c0.3,0.7,0.5,1.3,0.6,1.8c0,0.6,0.2,2.2,1.3,3.6c1.4,1.7,3.8,2.4,6.1,2c0.2,0.3,0.4,0.5,0.5,0.8
		c0.7,0.6,1.3,1.1,2,1.7c-1.3-0.5-2.9-1.2-4.9-1.8c-1.7-0.5-3.1-0.9-3.5-1c-1.9-0.5-4.1-0.8-8.8-1.9c-0.6-0.1-1.3-0.3-2-0.5
		c-3.7-1-5.4-4.5-6.3-6.1c-0.6-1.1-1.5-2.8-2-5.2c0.8-0.7,2.8-2.7,3.4-6c0.1-0.8,0.4-2.6-0.2-4.4c-1.3-3.4-5.8-6.7-10.3-5.3
		c-3.6,1.1-5.7,4.8-5.7,8.2c0,3.8,2.5,7.3,5.8,8.3c1.5,0.4,2.8,0.3,3.6,0.1c0.6,1.1,1.2,2.3,1.8,3.5c1,1.9,2.1,3.7,3.2,5.4
		c-7-1.6-11-1.7-13.3-1.4c-0.9,0.1-3.9,0.6-6.8-0.9c-0.3-0.1-0.6-0.3-1.1-0.7c-3.3-2.7-6-5.8-6-5.8c-1.3-1-2.9-2.4-4.4-4.4
		c-0.9-1.2-1.6-2.4-2.1-3.4c1.1-0.2,2.7-0.6,4.4-1.6c0.5-0.3,3.5-2.1,5.2-5.7c1.6-3.5-0.1-4.2,0.8-12.6c0.2-5.3,1.6-7.4,3-8.4
		c0.4-0.3,1.2-0.7,1.2-1.3c0-1.3-3.3-2.2-3.5-2.3c-2.5-0.7-4.6-0.2-5.4,0c-0.9,0.2-2.4,0.6-3.9,1.8c-2.4,1.8-2.8,4.1-3.6,3.9
		c-0.5-0.1-0.4-1.1-1.1-3.2c-0.4-1.1-0.7-2.1-1.1-2.7c0.6-2,1.4-3.5,2.1-4.5c1.1-1.6,2.2-3.3,4.3-3.9c0.1,0,0.4-0.1,0.8-0.1
		c2.2-0.2,4.2,0.8,5.4,1.6c1.7-0.8,4.6-1.9,8-1.4c1.3,0.2,2.2,0.6,2.6,0.7c1,0.4,3.4,1.5,4.5,4.1c0.2,0.4,0.7,1.9,0.3,3.7
		c-0.1,0.3-0.7,3.1-2.7,3.7c-1.7,0.5-3.3-0.9-3.5-0.7c-0.2,0.4,1.9,3.5,4.5,3.5c3.8,0.1,8.5-6.9,7.4-13c-0.9-4.5-4.7-7.1-6.3-8.1
		c-4-2.6-8-2.8-9.3-2.8c-6.1,0-11.1,2.7-15.3,7c-1.4,1.5-2.4,3.5-3.6,5.2c-0.5,0.7-0.8,1.5-1.3,2.3c-1.4-0.8-2.6-1.5-3.8-2.2
		c-1.1-0.6-2.3-1-3.6-0.1c0.5,1.2,0.7,2.2,0.8,3c0.1,0.8,0.3,2.6-0.4,4.7c-0.3,0.8-0.6,1.4-0.9,1.9c-0.6-0.8-1.3-1.6-2-2.4
		c-1.3-1.8-2.7-2.8-3.1-3.2c-1.3-1.2-3.2-3.2-5.7-6.5c-0.3,1.7-0.7,3.1-0.8,4.5c-0.4,3.8,0.2,7.5,1.2,11.1c0.3,1.2,0.7,2.4,0.6,3.6
		c-1.7-0.1-3.3-0.3-4.9-0.2c-1.7,0.1-3.3,0.1-4.3-1.6c-0.7,0.9-1.8,2.7-1.8,5.1c0,3.9,2.9,7.6,7.4,9.2c-1.1,0.8-7.3,5.2-7.9,12.9
		c-0.2,2.7,0.3,5,0.8,6.6c3.1-2.5,5.8-3.5,7.8-4c6.3-1.5,10,1.2,15.7-0.6c1.6-0.5,4-1.6,6.6-4.3c2.2,2.1,4.5,4.1,6.7,6.2
		c0.8,0.9,1.7,1.8,2.6,2.7c1.7,1.6,3.4,3.1,5,4.3c-0.6,0-1.4,0-2.3,0.2c-0.7,0.2-1.3,0.4-1.8,0.6c-1.2-0.4-3-0.9-5.2-1
		c-3.4-0.2-6.1,0.7-8,1.4c-9.5,3.4-18.9,6.9-22.1,15.2c-0.5,1.4-2,5.4-0.2,8.6c0.9,1.8,2.5,2.8,3.4,3.4c1.4,1,2.8,1.4,3.8,1.7
		c0.7-3.7,2.2-5.5,3.4-6.4c2.7-2.1,4.3-1.9,7.9-4.2c4.3-2.8,2.9-4.4,7.3-7.5c3.7-2.6,6.2-2.6,8.3-5.8c0.9-1.4,1.3-2.7,1.5-3.6
		c0.6-0.2,1.4-0.5,2.4-0.7c0.9-0.2,2.2-0.4,3.4-0.2c0.5,0.1,0.9,0.3,3.6,2.2c2.9,2.1,3.9,2.9,4.9,4.2c0.3,0.3,0.5,0.6,0.6,0.8
		c-1.9,0.9-4.2,2.1-6.5,3.8c-1.5,1-2.7,2.1-3.9,3.1c-2.3-2.6-5.9-3.4-8.8-2c-3.7,1.7-4.9,6.4-3.5,9.6c1.2,2.6,4,3.5,4.5,3.6
		c2.9,0.9,7,0.2,8.9-3c1.8-3.1,0.3-6.5,0.1-6.8c0.4-0.4,0.9-0.9,1.4-1.3c3.1-2.7,6.2-4.6,9.2-6.1c1.5,0.9,3.2,1.8,5.3,2.7
		c2,0.8,3.8,1.4,5.4,1.7l16.1,2.7c3.2,0.3,6.1,0.4,8.4,0.5c3.8,0.1,5.6,0.1,7.8-0.4c1.1-0.2,1.8-0.5,3.1-0.9
		c3.8-1.3,6.6-2.6,7.3-2.9c10.4-4.9,20.6-6,22.3-6c2.1,0.1,4,0.5,4,0.5h0c1.7,0.3,3.2,0.6,4.3,0.9c-1.4,0.2-4.1,0.7-6.6,2.9
		c-0.9,0.8-1.5,1.6-2,2.3c-0.5,1.3-1.3,2.9-2.7,4.4c-1,1.1-3.4,3.7-7.1,4.1c-2,0.2-3.6-0.3-4.6-0.6c0.5,0.8,2.9,4.8,7.4,5.5
		c2.7,0.4,4.8-0.5,7.1-1.6c4-1.8,6.2-4.4,8-6.5c2.3-2.8,2.8-4.3,3-5c0.5-1.9,0.3-3.5,0-4.6c1.5,0.1,3.7,0.3,6.3,0.8
		c2.8,0.5,5,0.9,8.7,2c6.1,1.8,8.2,2.6,12.4,3.8c1.5,0.4,2.3,0.6,3.3,0.9c3.1,0.7,5.8,1,7.6,1.1c-0.7,1.4-2.5,4.7-6.3,6.6
		c-2.2,1.2-4.2,1.4-4.7,1.5c-2.3,0.3-4.1-0.1-5.1-0.5c0.7,0.7,1.9,1.6,3.5,2.4c4.7,2.5,9.3,2,10.7,1.8c1.6-0.2,3-0.4,4.6-1.2
		c1.4-0.7,2.6-1.7,6.6-6.7c1.3-1.6,2.3-3,3-3.9c0.6-0.1,1.5-0.2,2.6-0.4c2.5-0.5,4-1.3,7.1-2.4c1.7-0.6,3.3-1.3,5-1.9
		c3.6-1.3,6.4-2.2,7.8-2.6c2.5-0.8,4.4-1.3,6.1-1.7c4.8-1.3,6.5-1.5,10-2.6c1.5-0.5,2.8-1,3.6-1.3c-0.6,0.5-1.4,1.4-2.2,2.5
		c-2.3,3.1-2.8,6.3-3.1,8.3c-0.4,2.5-0.6,4-0.1,6c0.8,2.9,2.7,4.8,3.7,5.6c1.1-0.3,3.3-1.2,4.6-3.3c0.4-0.7,0.7-1.4,0.9-2.5
		c0.6-2.6,0.6-5.3,0.1-8.9c-0.3-2.1-0.8-4.8-1.9-8.1c1.1-0.9,2.6-2.3,4.5-4.1c1.1-1,1.5-1.5,2.1-2.1c1.4-1.3,3.4-3.1,6.3-5
		c0,0.8-0.1,1.9,0,3.3c0,1.4,0.1,3.4,0.5,5.3c0.3,1.5,1.1,3.8,3,6.5c1.5,1.4,3,2.7,4.5,4.1c-0.9,0.5-2.8,1.7-3.7,4
		c-1.5,3.5-0.3,8.6,3,9.8c2.3,0.9,5.3-0.7,6.8-2.8c2.3-3.1,1.1-6.7,1-7c0.7,0.7,1.6,1.4,2.8,2.1c0.9,0.6,2.7,1.6,5,2
		c1.4,0.2,3.9,0.7,6.4-0.7c0.5-0.3,3-1.6,3.1-3.6c0,0,0,0,0,0c0.1-2.2-1.7-4.3-2.1-4.7c-2-2.2-4.7-2.9-5.6-3c-4.3-1-7.9,0.8-9.1,1.5
		c0.3-0.2,3.2-2.9,2.6-6.7c-0.5-3-3.2-5.9-5.8-5.7c-1.6,0.1-3.4,1.4-4.3,2.9c0,0.1-0.1,0.1-0.1,0.2c-1.7,2.7-1.3,6.4,0.9,9.6
		c-1.3-0.9-2.8-2.2-4-4.2c-0.2-0.3-0.8-1.2-1.2-2.5c-0.2-0.7-0.5-1.7-0.8-2.9c-0.7-3.5-0.4-6.2-0.2-8.6c0.3-2.5,0.6-4.4,1.5-6.9
		c0.6-1.7,1.3-3.3,2.6-4.7c1.3-1.5,2.4-3.1,3.6-4.6c0.5-0.6,1-1.2,1.4-1.8c2.5,1,5.9,1.9,9.9,1.5c0.6-0.1,1.2-0.1,1.7-0.2
		c0.2,0.2,0.5,0.6,0.5,1.2c0.1,0.9-0.4,1.5-1.4,3.1c-0.4,0.7-0.8,1.3-1.2,2c-1.5,2.3-2.3,9.6,1.9,14.5c0.6,0.7,2.6,2.9,5.9,3.6
		c1.1,0.2,2.9,0.6,4.7-0.4c2.3-1.2,2.9-3.7,3-4.2c-1.5-0.1-3.4-0.6-4.7-2c-1.7-1.7-1-3.2-3-5.8c-0.7-0.9-2.2-2.8-4.6-3.2
		c-1-0.2-1.9,0-2.5,0.1c0-0.6,0.2-1.6,0.6-2.7c0.7-1.6,1.6-2.1,2.3-3.8c0.3-0.6,0.7-1.6,0.8-2.9c0,0,0,0,0,0c1.4-0.3,3.8-1,6-3
		c0.9-0.8,1.6-1.5,2.1-2.2c0.5,1.1,0.9,2,1.5,2.8c0.6,0.9,1.1,2.1,2,2.6c1.9,1.2,4,2.3,6.5,1.2c0.4-0.2,1-0.2,1.3-0.1
		c1.4,0.8,2.7,1.7,4.3,2.8c-0.9,0.2-1.5,0.5-2.1,0.6c-2.6,0.2-4.6,1.7-6.3,3.5c-0.5,0.5-0.9,1.2-1.1,1.8c-1,2.8-0.9,5.4,0.5,8.1
		c1,2,3.4,3.2,5.6,2.8c1.8-0.3,3.3-1.1,4.7-2.1c0.5-0.4,1.1-0.6,1.9-1.1c0,1.2,0,2.1,0,2.9c0,3.5,1.9,5,4.6,5.9
		c0.7,0.2,1.7,0.1,2.4-0.2c1.1-0.4,1.8-0.9,2.8-1.8c1.5-1.3,1.4-1.7,2.1-2.1c0.9-0.5,2.4-0.7,5.3,0.8c-0.6,0.1-8.1,1.1-11.5,7.8
		c-2.1,4.2-2.4,10,0.6,14c1.9,2.5,4.4,3.5,5.8,4c4.8,1.9,9.1,1,10.9,0.5c-1-0.5-2.5-1.5-3.9-3.2c-0.8-1-2.9-3.6-2.5-7
		c0.4-3.9,3.9-6.6,6.9-7.5c3.3-1,6.3,0.1,8.6,0.9c1.5,0.6,4,1.7,6.4,4.1c-0.3,0.3-4.4,3.9-3.7,9.1c0.7,4.9,5.4,8.6,10.4,8.4
		c4.7-0.2,9.1-3.8,9.7-8.5c0.6-4.8-3.2-8.2-3.6-8.6c2.5-2.1,4.9-3.1,6.5-3.6c2-0.6,8.8-2.8,13.1,1c0.2,0.1,3.3,3,3.1,7.1
		c0,1.9-0.7,3.4-1.1,4c-0.5,0.9-1.2,2.3-2.8,3.2c-1,0.6-1.6,0.6-1.6,0.8c0,0.4,4.3,1.3,8,0c4.5-1.5,8.8-6.2,8.8-12.2
		c0-5.1-3.3-9.2-6.2-11.1c-2.2-1.4-4.5-1.8-4.5-1.8c-1.1-0.2-2-0.2-2.7-0.2c0.6-0.5,2.1-1.6,3.9-1.4c0.2,0,0.6,0.1,1,0.3
		c1.3,0.6,1.8,1.8,4.3,3.4c0.8,0.5,2.7,1.6,5.4,2c2.8-0.1,5-1.5,5.5-3.1c0.1-0.4,0.4-1.4,0-2.5c-0.2-0.4-0.4-0.9-0.8-1.3
		c-0.3-0.3-0.5-0.6-0.7-1c0.3-0.1,0.4-0.1,0.5-0.1c2.2,1.1,4.6,1.4,7,1.7c0.8,0.1,1.8,0.2,2.5-0.2c3.6-1.8,5-4.8,3-8.4
		c-1.8-3.1-4.5-5.3-8.2-5.8c-1.3-0.2-2.5-0.2-3.7-0.4c2.6-0.8,5.1-1.8,7.1-3.9c0.6,0.2,1,0.5,1.5,0.6c1.4,0.4,2.7,0.4,4.1-0.1
		c2.9-1,4-3.9,4-6.2c0-1.5-0.5-3-1.2-4.3c-0.3-0.5-0.4-1.1-0.6-1.6c0.1-0.1,0.2-0.2,0.4-0.3c0.5,0.3,1,0.6,1.4,1
		c1.3,1.5,2.8,2.2,5.4,4.4c3.9,3.3,4.3,3.7,4.7,4.3c1,1.4,1.6,2.8,1.9,3.8c-1.1,0.8-1.7,1.7-2.1,2.3c-0.4,0.7-1.3,2.3-1.4,4.4
		c0,1,0.2,0.9,0.2,2.1c0,1.1,0.1,3.8-1.5,5.2c-0.6,0.6-1.3,0.8-2.2,1c-1.1,0.4-2.1,0.4-2.8,0.4c-2.2,0-3.1-0.8-3.6-0.3
		c-0.4,0.4-0.2,1.5,0,2c1.3,3,6.7,4.2,10.8,3.6c2.2-0.3,4.1-1.1,5.5-2c0,0,1.4-0.9,2.4-2.3c2.6-3.6,1.9-7.9,1.8-9
		c-0.7-4.3-3.3-7-4.3-7.9c-0.6-1.2-1.2-2.3-1.8-3.5l5,0.8c0.4,0.4,1.2,0.9,2.2,1.4c3,1.4,5.9,0.9,7.8,0.5c1-0.2,2.6-0.5,4.3-1.3
		c1.7,2,3.4,4.1,5.1,6.3c0.6,0.7,1.1,1.5,1.7,2.2c0,0,0,0,0,0c0.2,0.2,0.3,0.5,0.5,0.8c0.3,0.6,0.5,1.1,0.6,1.6
		c0.5,0.8,0.9,1.3,1.3,1.8c0.5,1,1.2,2.5,2,4.3c1.2,2.3,2,4,2.9,5.5c0,0,0,0,0,0c-0.5,1.6-1.1,2.8-1.6,3.7c-1.4,2.5-3.2,4.4-4.2,5.5
		c0,0,0,0,0,0c-1.1,1.2-1.9,2-3.3,2.9c-1.1,0.7-2.2,1.1-2.9,1.4c0.5-0.9,0.8-1.7,1-2.3c0.3-1.1,1-3.5,0-6.1c-0.1-0.4-1.2-3.2-4-4.4
		c-0.4-0.2-0.8-0.3-1.1-0.4c-0.6-0.1-1.7-0.2-3,0.1c-0.7,0.2-2.3,0.6-3.4,2c-0.9,1.2-0.9,2.5-1,3.9c0,0.7,0,1.3,0.1,1.7
		c-0.9-0.4-2.3-1-4.1-1.3c-0.7-0.1-3.1-0.5-5.9,0.4c-2.6,0.8-5.4,1.6-6,5.1c-0.3,2.2,1.2,4,1.6,4.4c3.7,4.4,11.9,3,13.3,2.8
		c0.8-0.1,1.4-0.3,1.9-0.4c-0.2,0.7-1.3,4,0.4,7c0.4,0.6,1.2,2.1,2.9,2.7c2.4,0.9,4.6-0.6,5.1-0.9c2.7-1.7,3.2-4.8,3.2-5.7
		c0-0.6,0-1.2,0-1.2c0-0.6-0.1-1.2-0.3-2c-0.2-0.9-0.4-1.6-0.6-2.2c1.1-0.3,2.6-0.8,4.2-1.7c2.8-1.7,4.4-3.8,5.7-5.6
		c0-0.1,0,0,0.9-1.3c1.8-2.7,2.6-3.9,2.9-5.5c0,0,0,0,0,0c0.8,1,2,2.6,3.8,4.4c1.2,1.1,2.2,2,3.1,2.7c1,0.8,2.1,1.4,3.9,2.4
		c0.6,0.3,1.4,0.7,2.4,1.2c0,0,0,0.1,0,0.1c0.1,0,0.2,0,0.3,0c0.1,0,0.3,0,0.4,0.1c2.8,0.4,5.3,1.3,7.5,2.4c-1,0.4-3.3,1.4-4.7,3.9
		c-0.6,1.1-0.9,2-1,2.6c-0.3,1-1.1,4.3,0.6,6.9c0.4,0.6,0.8,1,1.1,1.2c0.9,0.1,2.8,0.1,4.7-1c1.9-1.1,3.7-3.3,3.8-5.8
		c0-0.7-0.1-1.2-0.4-2.2c-0.6-2.3-1.5-4-2.1-5.1c0.6-0.1,1.1-0.3,1.6-0.2c1.5,0.1,3,0.2,4.5,0.3c2.6,0.3,4.8,0.7,8.5,0.9
		c1.6,0.1,4,0.1,7-0.2c0.3,0,0.6,0,0.7,0c0.9-0.1,4.8-0.3,7.4,1c1,0.5,1.5,1.1,2.8,2.3c1.4,1.3,1.9,2,3.2,3c1.1,0.9,2,1.5,2.7,1.8
		c2,1.1,5.8,2.8,10.3,2.7c2.3,0,3.9-0.5,4.5-0.7c1.3-0.4,3-1,4.6-2.5c1-0.9,2.2-1.7,2.3-3.4c-0.5,0.5-1.3,1.2-2.5,1.5
		c-2,0.6-3.8-0.1-5.5-0.7c-0.7-0.3-1.5-0.7-3.1-1.5c-3.2-1.7-3.2-1.9-4.4-2.4c-2.6-1-4.8-0.9-4.8-1c0-0.1,2.3,0.2,5.4,0
		c0.4,0,1,0,1.8-0.2c2.1-0.4,4.9-1.2,4.9-1.2c5.4-1.7,11.3-3.3,17.8-4.6c4.1-0.8,8.1-1.5,11.8-2c0.5,0.3,1,0.7,1.5,1
		c0.8,0.6,1.6,1.2,2.4,1.8c0.1,0.7,0.2,1.6,0.5,2.7c0,0,0.3,1.1,0.7,2c1.6,3.6,7.2,6.5,7.7,6.8c1.3,0.7,2.7,1.4,4.7,1.9
		c1.8,0.4,5.8,1.4,9.7-0.5c1.5-0.7,2.6-1.7,3.3-2.3c-0.6,0-0.9-0.1-1.1-0.1c-0.8,0-1.7,0.2-2.5,0c-1.2-0.2-2-0.6-2.3-0.8
		c-0.4-0.2-0.6-0.4-1.7-1.5c-0.6-0.5-1.1-1-1.7-1.6c-1.6-1.6-1.9-1.6-4-3.5c-1-0.9-1.1-1.2-1.8-1.8c0,0-1.1-0.9-2.4-1.5
		c-3.1-1.5-7.2-1.1-7.7-1c-1.1-0.8-2.1-1.6-3.2-2.5c3.2,0.9,5.8,1.4,7.7,1.7c6.7,1,10.5,1.3,10.5,1.3c0.3,0,0.6,0,0.7,0.1
		c0.6,0.1,2.7,0.4,5,1.6c0.1,0.1,0.2,0.1,0.3,0.2c6,1.7,8.4,2.3,9.1,2.4c0.2,0,1.1,0.2,2.2,0.5c1.8,0.5,2.3,0.7,8.1,1.9
		c1.8,0.4,5.1,0.9,11.8,1.9c5.2,0.8,7.1,1.1,9.1,1.3c3.4,0.4,5.1,0.6,7,0.8c4.7,0.3,9.3,0.6,13.1-0.4c2.4-0.7,4.7-0.9,7.1-0.7
		c1.8,0.1,3.5,0.5,5.3,0.8c-0.2,0.5-0.4,1.3-0.4,2.2c0,0.2,0,1.5,0.6,2.7c0.9,2,2.9,3.3,4.9,3.7c2.8,0.6,5.7-0.7,7.4-2.8
		c0.3-0.3,2.3-3,1.4-6.3c-0.1-0.3-0.5-1.9-2-3.1c-1.8-1.6-4.4-2.2-6.8-1.5c-2.5,0.7-3.8,2.7-4.1,3.2c-1.4-0.4-2.9-0.8-4.3-1.2
		c0.5-0.3,0.7-0.5,0.9-0.7c2.7-1.6,5.4-3.2,8.1-4.7c0.4-0.2,0.8-0.4,1.3-0.4c2.1,0,4.3-0.1,6.4,0.2c2.5,0.3,5.1,0.9,7.6,1.5
		c1.4,0.3,2.9,0.6,3.8,1.9c0.6,0.8,1.1,1.8,1.9,2.2c0.9,0.5,2.1,0.3,3.1,0.5c2.1,0.3,4.1,2.8,3.4,5.3c-0.1,0.2-0.1,2.6-1.7,3.4
		c-0.8,0.4-1.8,0.2-2,0.2c-1.2-0.2-1.9-0.9-2.1-0.7c-0.2,0.2,0.3,0.9,0.4,1c1.4,2,3.5,2.9,3.8,3c0.6,0.2,1.8,0.6,3.5,0.6
		c3.8,0.1,9.1-1.6,10.5-5.5c0.1-0.3,0.2-0.5,0.2-0.7v0C711.8,185.2,707.8,181.4,706.2,179.7 M680.9,149.4c0.8-3.5,2.5-6.2,3.8-7.8
		c1.1-1.7,2.4-3.4,3.8-5.1c0.3-0.4,0.6-0.7,0.9-1.1c2.5-2.2,5-4.5,7.5-6.7c0,1.9-0.2,4.1-0.6,6.5c-0.3,1.6-0.6,3-1,4.3
		c-0.4,1.4-2.1,8.1-5.4,12.8c-1.9,2.7-3.6,3.8-4.4,4.2c-1,0.6-2,0.9-2.7,1.1c0.5-0.6,1.3-1.6,2.2-2.7c3.9-4.7,3.9-4.7,4.4-5.4
		c1.9-3,2.6-5.9,2.9-7.5c0.4-2.2,0.5-4,0.5-5.4c-1,0.8-2,1.8-3.1,2.9c-1.3,1.4-2.3,2.7-3.1,3.9c-1.1,1.3-2.6,3.3-3.7,6
		c-1.7,4.2-1.6,7.6-1.9,7.6C680.6,157,680.1,153.4,680.9,149.4 M683,154.4c0.4-1.5,1-3.3,2-5.3c1.5-2.8,3.2-4.7,4.6-6
		c-0.4,1.7-1.1,4.1-2.7,6.7C685.6,151.9,684.1,153.4,683,154.4 M108.8,103c1.3-0.9,2.7-0.9,3.3-0.9c2.1,0,3.5,1,4.2,1.5
		c1.8,1.5,2.3,3.5,2.6,4.7c0.3,1.5,0.3,2.7,0.2,3.6c-2.1,0.6-5.7,1.2-9.3-0.3c-1.2-0.5-2.5-1-3.1-2.3
		C105.7,107.2,106.8,104.4,108.8,103 M281.7,87.8c-0.8,0.8-2.8,2.9-3.5,6.4c-0.4,2.1-0.2,3.8-0.1,4.1c-5.8,3.1-8.6,4.6-10,5.3
		c-0.3,0.1-1.1,0.5-2.2,1.2c-2.4,1.4-3,2.2-10.1,5.4c-1.5,0.7-4.3,1.9-8.1,3.9c-1.2,0.6-1,0.5-2.5,1.4c-2.8,1.5-6.3,3.4-10.5,5.1
		c-0.8,0.3-2.1,0.8-4.8,1.8c-4,1.5-7,2.6-10.9,3.9c-3,1-5.2,1.6-6.6,2c-7.6,2.1-13.6,3.3-19.6,4.5c-4.8,1-2.9,0.7-11.6,2.1
		c-4.3,0.7-8.5,1.3-14.4,2.2c-2.1,0.3-3.9,0.5-5,0.7c-1.2,0.2-2.3,0.5-3.4,0.7h0c-1,0.1-3.5,0.3-3.5,0.3c-10.2,1-22.4,0.4-22.4,0.4
		c-2.5-0.1-4.7-0.3-6.9-0.5c-4.4-0.4-6.6-0.5-8.2-0.8c-2.9-0.5-6.8-1.3-11.3-3.6c-2.6-1.3-4.9-2.5-7.1-5c-0.6-0.7-2.9-3.4-4.1-7.8
		c-1.3-4.9-0.3-8.8-0.1-9.6c0.3-1.3,1-3.7,3-6.2c1.5-1.8,3-2.7,3.7-3.2c1.8-1,3.4-1.5,4.5-1.7c-0.2,0.2-3.9,3.7-2.8,7.9
		c0.6,2.4,2.5,3.7,3.4,4.4c2.5,1.8,5.1,1.9,8.1,2.1c2.2,0.1,4.7,0,7.5-0.2c0.7,0,1.4-0.1,1.4-0.1c1.1-0.1,2-0.2,2.5-0.3
		c0.2,0,0.4-0.1,0.5-0.1c2.2-0.3,12.3-1.3,18.5-2.1c0.9-0.1,2.3-0.3,4.1-0.5c0,0.3,0.2,0.8,0.6,1.4c0.5,0.7,1.2,1,1.5,1.1
		c0,0.3,0,0.8,0,1.3c0,1.8-0.2,2.8-0.1,4.5c0.1,1.2,0.8,1.6,2.3,1.5c1.8-0.1,3.7-0.3,5.5-0.4c0.6,0,1.1,0,1.7,0
		c0.6,0,1.1,0.2,1.3,0.8c0.2,0.6,0,1.1-0.5,1.5c-1.1,0.9-2.1,1.8-3.1,2.8c-0.8,0.7-1.4,1.6-2.1,2.4c-0.2,0.3-0.2,0.7-0.4,1.1
		c0.8,0.1,1.1-0.5,1.4-0.8c1.3-1.2,2.6-2.4,3.9-3.6c0.5-0.5,1.1-0.8,1.5-1.4c0.8-1,1.3-2.1,1-3.6c-0.3-1.2-0.5-2.5-0.7-3.8
		c-0.2-0.8-0.7-1-1.6-0.8c-2,0.4-4.1,0.7-6.1,1c-0.3,0-0.6,0-0.8,0c-0.3,0-1-0.3-1.4-1c-0.4-0.8-0.1-1.5-0.1-1.6
		c0.3-0.3,0.8-0.9,1.1-1.9c0.1-0.6,0.1-1.1,0.1-1.5c0.6-0.1,1.2-0.1,1.9-0.2c0.2,0,0.8-0.1,1.6-0.1c2-0.2,14.1-1.1,18.8-1.6
		c8.4-0.8,12.7-1.2,14.8-1.6c5.1-0.8,8.6-1.3,13.2-2.7c4.9-1.5,8.4-3.3,12.9-5.5c4.8-2.4,8.2-4.5,11.1-6.2c3.9-2.4,9-5.6,14.7-9.9
		c2.3-1.8,4.3-3.2,5.7-4.1c0.7-0.5,2.2-1.3,5-3c3.5-2.1,4.4-2.6,5.7-3.2c1.3-0.6,2.6-1.1,3.8-1.4c4.8-1.5,9.5-1.7,9.5-1.7
		c3.2-0.1,6,0.2,8.4,0.6c-0.3,1-1.7,6.3,1.5,10.9c1.1,1.7,2.5,2.8,3.6,3.4C284.9,85.2,283.3,86.1,281.7,87.8 M32,142.3
		c-0.4,0.1-0.5-2.5-2.5-6c-1.7-3-4.4-6-6.3-7.3c-0.2-0.1-1-0.6-1.9-1.4c-0.8-0.7-1.4-1.3-1.7-1.7c-0.4,1.1-0.4,2.3-0.1,3.5
		c0.7,2.8,2.2,5.1,4.1,7.3c1.5,1.8,3.3,3.3,5,5c0.8,0.8,1.7,1.4,2.1,2.8c-2.2-0.2-3.8-1.1-5.1-2.6c-7.7-8.7-9.3-13.9-9.3-13.9
		c-0.6-2.1-1.4-5.6-1.1-10c1.7,2,3.8,4.2,6.3,6.5c1.9,1.7,3.8,3.2,5.5,4.4c1.6,1.5,3.7,3.9,4.7,7.3C32.4,139.2,32.4,142.2,32,142.3
		 M29.3,140c-1.7-1.4-3.7-3.4-5.6-6.1c-1.2-1.7-2.1-3.4-2.7-4.8c1.7,1.5,3.6,3.5,5.5,6.1C27.7,136.9,28.6,138.5,29.3,140 M100.7,175
		c-2.7,0.7-5.1,0.7-7.4,0.7c-0.6,0-1,0-1.5,0c-3.8-0.2-8-0.4-13.5-1.2c-3.4-0.5-5.1-0.8-7.3-1.4c-2.5-0.7-4.3-1.5-6.9-2.7
		c-2-0.9-4-1.8-6.5-3.2c-2.4-1.4-4.3-2.8-5.7-3.9c0.9,0.1,2.4,0.2,4.2,0.2c1.9,0.1,3.2,0.1,3.5,0.1c4,0,7.2,1.6,15.8,3.4
		c3.5,0.7,5.3,1.2,8.8,2c0.6,0.1,0.8,0.2,1.1,0.3c6,1.4,7.8,2.3,11.5,3.1c1.1,0.2,2.8,0.6,4.9,0.8c0,0,0,0,0,0
		c0.9,0.1,1.9,0.2,2.8,0.3C103.2,174.2,101.7,174.7,100.7,175 M261.3,136.7c-1.1,1.9-2.1,2.6-4.7,5.3c-1.4,1.4-1.4,1.7-2.3,2.3
		c-1.5,1.1-3,1.6-3.7,1.8c-0.8,0.2-2.4,0.6-4.5,0.4c-1-0.1-1.8-0.3-2.4-0.4c0.1-0.3,0.3-0.6,0.5-1.1c0.5-1.5,0.3-2.8,0.3-3.5
		c0-0.8-0.3-1.8-0.8-2.9c0.1-0.8,0.3-3.4,2.3-4.7c0.4-0.3,1-0.8,2.6-0.8c3.3-0.1,5.2-0.1,8.6,0.8c1.2,0.3,2.8,0.8,4.7,1.6
		C261.8,135.7,261.6,136.2,261.3,136.7 M283.8,127.9c-3.5,1.7-6.8,2.2-8.9,2.3c-1.1,0.1-2.3,0.3-3.4,0.4c0.2-1,0.6-1.7,1.4-2.3
		c2.9-2.1,6.1-3.6,9.6-3.9c2-0.2,4.1-0.4,6.5-0.1C287.9,125.4,286.1,126.7,283.8,127.9 M296.3,114.3c-3.3-3.3-4.7-4.6-6.3-7.4
		c-1.7-2.9-2.4-5.9-2.6-8.7c0.1,0.7,0.5,3.8,3,5.2c1.5,0.8,3.1,0.7,3.9,0.6c2.3-0.2,3.8-1.4,4.1-1.6c1.5-1.2,2.2-2.6,2.4-3.3
		c-0.5,2.8-0.9,6.3-0.8,10.3c0.1,5.1,1,9.3,2,12.5C300,118.3,297.9,115.8,296.3,114.3 M304.2,85.5c-0.5,1.2-1,2.4-1.5,3.5
		c-0.1-0.3-0.3-1.4-1.3-2.3c-0.9-0.8-1.9-0.9-2.2-0.9c0.9-0.3,1.9-0.8,3-1.4c1.5-0.9,2.7-1.8,3.6-2.6
		C305.2,83,304.7,84.2,304.2,85.5 M382.1,37.5c3.4-0.3,5.9,1.9,6.5,2.5c1-2.5,2.3-4.2,3.2-5.2c1.2-1.3,2.8-3,5.4-3.9
		c2.2-0.7,4-0.4,4.4-0.4c1.9,0.3,3.2,1.2,4.6,2.1c1.2,0.8,2.9,2.2,4.5,4.3c-0.1,0-0.1,0-0.2,0c-2.9,0.2-5.6,0.5-6.6,0.7
		c-0.2,0-0.3,0.1-0.4,0.1c-0.4,0.1-4.6,0.9-7.3,1.9c-1.4,0.5-4.3,1.8-7.6,4.7c0.2,1.4-0.2,2.2-0.4,2.5c-1.2,1.9-4,1.7-4.9,1.7
		c-1.5-0.1-2.6-0.6-3.3-0.9c0.2-0.2,0.5-0.4,0.7-0.7c0.7-1,1.2-3.1,0-4.1c-0.9-0.8-2.4-0.8-3.6,0c0-0.5,0-2.2,1.1-3.6
		C379.4,37.7,381.2,37.5,382.1,37.5 M316.7,63c0.8,0.6,1.6,1.2,2.5,1.9c0.3,0.2,0.7,0.4,1,0.6c1.1,0.6,2.2,0.9,3.1,1.2
		c-0.3,0.2-0.6,0.4-1.1,0.8c-1.8,1.3-2.9,2.3-4.4,3.7c-0.9,0.8-2.3,2-4,3.5c0.7-1.2,1.7-3,2.3-5.3C316.7,66.7,316.8,64.5,316.7,63
		 M317.8,55.5c-1.6-1.4-2.7-2.8-3.5-4c0.3-0.2,4.7-3.4,7.5-4.4c0.6-0.2,1.3-0.5,1.3-0.5c0.9-0.3,1.9-0.5,3.4-0.9
		c3.8-0.8,5.7-1.3,8.7-1.7c5.5-0.8,9.6-0.7,15.2-0.6c3.4,0,5.1,0.1,7.2,0.4c3.3,0.4,5.7,1.2,9.6,2.4c4,1.2,6.2,1.9,9,3.2
		c3.1,1.5,5.6,3.1,7.2,4.3c-0.4,1-1.1,2.2-2.2,3.5c-1.8,2-3.8,3-5,3.5c-3.2-1.7-7.7-3.6-13.3-5.1c-2.5-0.7-6.5-1.7-12-2
		c-2-0.1-9.1-0.4-17.9,2.1c-3.8,1.1-7,2.4-9.2,3.4C322.3,58.6,320.1,57.5,317.8,55.5 M346.7,40.6c0.4-1.2,0.7-2.2,1-3
		c0,0,0.5-1.5,2.5-5.7c0.5,1.4,1,2.8,1.5,4.2c0.6,1.5,1.2,3,1.9,4.5c-1.1,0.1-2.4,0.2-3.8,0.2C348.7,40.8,347.7,40.7,346.7,40.6
		 M381.5,64.2c1.3-0.7,2.4-1.5,3.2-2.2c0.3,2.4,0.5,4.8,0.8,7.1c0.6,1.4,0.6,1.8,0.4,1.9c-0.3,0.2-1.4-1.4-3.8-3.1
		c-1.9-1.3-3.2-1.7-3.6-1.8c-1.1-0.3-2-0.3-2.7-0.2C377.2,65.8,379.3,65.4,381.5,64.2 M370.5,40.9c0.3-0.4,0.6-0.8,0.8-1.2
		c0.3-0.6,1.5-2.9,1.3-5.3c-0.1-0.9-0.4-1.9-0.4-1.9c-0.3-0.9-0.7-1.6-1-2.1c1.4-1.2,2.9-2.6,4.4-4.4c1.3-1.5,2.4-3,3.2-4.4
		c0.7,1.8,1.1,3.4,1.3,4.5c0.1,0.6,0.2,1.2,0.3,1.7c0,0.2,0,0.3,0,0.5c0.1,1.2,0,2.6-0.1,3.5c-0.1,0.9-0.2,1.8-0.2,2.7
		c-0.6,0-1.7,0.2-2.8,0.7c-2.6,1.3-3.6,3.9-3.8,4.8c-0.7,2.1-0.2,4,0,4.8c-1.2-0.5-2.5-0.9-3.9-1.3c-0.9-0.3-1.7-0.5-2.6-0.7
		C367.7,42.7,369.3,42.3,370.5,40.9 M332.5,32.2c0.2-0.7,0.5-1.7,1.4-2.6c1.2-1.1,2.8-1.3,3.9-1.3c1.7-0.1,2.7,0.4,2.9,0
		c0.1-0.2,0-0.8-1.6-2.2c-0.4-0.3-1.8-1.3-2.3-3.2c-0.1-0.3-0.7-2.7,0.9-4.6c0.9-1.1,2-1.5,2.5-1.6c2-0.7,3.8-0.1,4.4,0.1
		c1.5,0.5,2.2,1.3,2.5,1.1c0.2-0.2-0.3-1-0.9-2.3c-0.7-1.6-1.5-3.5-1.1-5.5c0.3-1.4,1.2-2.3,1.5-2.5c0.9-0.9,1.9-1.1,2.5-1.3
		c2.1-0.6,3.8,0.1,4.4,0.4c0.7,0.3,1.7,0.7,2.4,1.8c1.3,1.9,0.4,4.5,0.1,5.4c-0.8,2.5-2.5,4-2.2,4.4c0.2,0.2,0.8,0,1.3-0.2
		c0.4-0.2,0.9-0.6,1.6-0.8c0.1,0,0.2-0.1,0.3-0.1c2.9-1,5.1,0.4,5.1,0.4c1.6,1,2.1,2.5,2.2,2.8c0.7,2.1-0.1,3.9-0.4,4.3
		c-0.6,1.2-1.6,1.9-1.9,2.2c-1,0.7-1.8,1.6-2.8,2.3c-0.1,0-0.2,0.2-0.2,0.3c0.1,0.3,1.7-0.2,3.6,0.1c0.7,0.1,1.6,0.3,2.6,0.8
		c0.6,0.4,1.6,0.9,2.2,2.1c0.8,1.7,0.2,3.4,0.2,3.6c-0.5,1.4-1.6,2.1-2,2.3c0-0.2-0.1-0.6-0.4-1c-0.4-0.4-0.8-0.6-1-0.7
		c-0.2-0.1-1.5-0.5-2.7,0.2c-1.2,0.7-1.7,2.4-1.2,3.9c-0.8-0.3-1.5-0.5-2.3-0.8c-0.7-1.8-1.2-3.3-1.6-4.3c-0.9-2.7-2.3-7.1-4-11.9
		c-1-2.7-1.3-3.7-2-3.7c-0.8,0-1.5,1.5-3,5.2c-2.2,5.2-3.2,8-3.2,8c-0.6,1.7-1.4,4-2.3,6.8c-0.6,0-1.2,0-1.9,0c-1,0-1.9,0.1-2.7,0.2
		c0.7-1.6,0.6-3.3-0.3-4.4c-0.2-0.2-1-1.3-2.4-1.3c-1.3,0-2.1,0.9-2.3,1.1C332.2,34.9,332.1,33.6,332.5,32.2 M319.4,22.6
		c0.3-1.3,0.9-3.1,1.8-5.2c1.7,1.7,2.9,3.2,3.6,4.3c0.9,1.4,1.7,2.9,3.7,5.9c0.2,0.2,0.3,0.4,0.4,0.5c0,0.4,0,0.6,0,0.8
		c-0.1,1-0.5,1.4-0.9,2.7c0,0-0.1,0.4-0.2,0.8c0,0.1-0.2,1.8,0.4,3.6c0.9,2.8,3.4,4.8,3.9,5.1c-1.2,0-2.6,0.2-4.2,0.5
		c-1.8,0.4-3.3,1-4.4,1.6c0.4-0.6,1.1-1.7,1.2-3.2c0.2-1.9-0.5-3.4-0.9-4.1c-1.2-2.4-3.2-3.6-4-4c-0.4-0.9-0.9-2.4-1-4.2
		C318.6,25.9,318.9,24.6,319.4,22.6 M302.7,39.6c-2.5-0.7-5.7-1.6-9.8-1.8c-1.6-0.1-3.6,0-6,0.4c0.3-1,0.9-2.6,2.2-4.1
		c2.3-2.6,5.2-3.2,6.4-3.5c0.9-0.2,3-0.6,5.4,0.1c5.1,1.4,7.4,6.3,7.7,7.1c2.4-2.3,5.7-3.1,8.3-2c1.9,0.8,2.9,2.3,3.3,3
		c-0.5-0.1-1.4-0.1-2.5,0.3c-0.6,0.2-2.1,0.7-2.9,2.2c-0.9,1.8,0.1,3.8,0.2,4c0.5,0.9,1,1.1,0.9,1.5c-0.3,0.7-3,0.7-4.9-0.6
		c-0.9-0.7-1.5-1.6-2.1-2.4c-0.6-0.9-0.9-1.7-1.1-2.3C306.8,40.9,305,40.2,302.7,39.6 M352.2,169.5c-1.5,1.7-2.1,3.5-2.5,4.6
		c-0.9-3-3.1-5.1-5.4-7.3c1.4,0.4,3.2,0.7,5.3,0.8c2,0.1,3.7-0.1,5.1-0.4C354,167.8,353.1,168.5,352.2,169.5 M390.4,116.3
		c-0.8,5.6-2,9.6-3.1,13c-1,3.3-2,6.3-3.7,9.6c-1.7,3.2-3.5,5.7-4.9,7.3c-0.4,0.6-0.9,1.1-1.3,1.7c1.5-0.2,3.2-0.7,4.9-1.7
		c1.6-1,2.6-2.3,3.1-2c0.5,0.3,0.1,1.9,0,2.2c-0.9,3.4-3.2,6.1-4.9,7.8c0,0-5.6,5.6-13.2,8.4c-0.1,0-0.1,0-0.2,0.1
		c0,0-0.2,0.1-0.4,0.1c-2.3,0.8-7.6,2.7-13.6,3c-4.2,0.2-7.3-0.5-10.7-1.3c-4.8-1.1-8.6-2.6-10.9-3.7c-2.2-1-4.5-2.1-7.2-4.1
		c-2.2-1.7-3.7-3.3-5.4-5.2c-1-1.1-1.8-2-2.5-3c-1.7-2.1-2.7-3.2-3.6-4.9c-0.5-0.9-1.2-2.2-1-2.5c0.3-0.3,1.7,1.1,4.6,3.2
		c2.4,1.7,3.6,2.5,3.9,2.2c0.7-0.6-2.4-4.6-5.4-10.7c-1.8-3.6-2.9-6.8-3.6-9c0,0,0,0,0,0c-1.6-6.3-2.9-10.8-3.5-15.9
		c-0.3-2.2-0.6-5-0.3-8.6c0.3-4,1.1-6.8,1.4-7.7c0.6-1.8,1-3.2,1.7-4.4c1.4-2.7,2.4-5.5,4.3-7.9c1.5-2.2,3-4,4.1-5.3
		c1.7-1.9,3-3.3,5.2-4.7c1.8-1.1,3.5-1.7,4.6-2.1c0.2,0.7,0.7,2,1.9,3.1c0.6,0.5,2.5,2.4,4.8,1.9c2.5-0.5,3.5-3.3,3.5-3.5
		c0.5-1.6,0.1-3-0.1-3.5c2.5,0.9,6.8,2.1,12,1.9c4-0.2,7.2-1.1,9.4-1.9c-0.3,1.7-0.5,3.7,0,4.7c0,0,0,0.1,0,0.1
		c0.2,0.3,0.6,1.2,1.7,1.8c1.1,0.7,3.3,1,5.1,0.1c2-1,3.2-3.2,3.1-5.7c1.1,0.1,2.6,0.3,4.4,1.1c2.8,1.2,4.6,2.8,6.3,5
		c2.1,2.7,4.6,5.9,6.6,10.3c1.2,2.6,1.8,4.7,2,5.7c1.4,5,1.4,9,1.4,13.3C391.2,109.9,390.7,113.9,390.4,116.3 M576.9,117.9
		c0.5-2.6,2.6-4.1,2.7-4.2c1.6-1.2,4.4-2,6.6-0.7c1.1,0.6,1.7,1.6,2,2.1c0.2,0.6,0.5,1.6,0.1,2.6c-0.2,0.4-0.7,1.5-3.4,2.6
		c-1.4,0.6-3.8,1.2-7,1.1c-0.1,0-0.3-0.1-0.5-0.2C576.4,120.6,576.9,118.3,576.9,117.9 M418.5,76.1c0.5-3.2-1.1-5.7-1.5-6.3
		c0.7,0,1.2,0.1,1.5,0.2c0.7,0.2,0.9,0.4,1.8,0.7c1.7,0.5,2.1,0.3,4.2,0.6c1.3,0.2,3,0.6,5.4,1.4c1.2,0.4,5.3,1.8,13.6,6.4
		c1.2,0.6,2.2,1.2,3.2,1.8c4.9,2.8,8.3,5.1,10.1,6.2c9.6,6.2,23.6,14.5,25.6,14.9c0.2,0,1,0.5,2,1c0.1,0,0.1,0.2,0.3,0.4
		c-0.3,0.5-0.5,1.1-0.9,1.7c-0.4,0.6-0.5,1.1-0.1,1.8c0.6,1,0.5,1.1-0.4,1.9c-1.2,0.9-2,2-2.5,3.4c-0.3,0.8-0.1,1.3,0.6,1.7
		c0.2,0.2,0.5,0.3,0.7,0.5c3.4,1.6,6.7,3.3,10.1,4.9c0.5,0.2,1.3,0.6,1.4,1.3c0.2,0.9-0.9,1.9-1.1,2c-2.9,2.4-8.3-1-10.3,1.2
		c-0.4,0.4-0.5,0.9-0.6,1.2c1.9,0,3.8-0.1,5.6,0c0.9,0,1.6,0,2.2-0.1l0,0c0.6,0,1.5-0.1,2.6-0.5c0.3-0.1,0.6-0.2,0.8-0.3
		c1.6-0.7,2.5-2.4,2.8-3c1.1-1.9,1.3-3.8,1.3-5c-2.5-1-5-2-7.6-3.1c-1.3-0.6-2.7-1.1-4-1.7c-1.3-0.6-1.4-1.2-0.5-2.3
		c0.4-0.5,0.8-0.9,1.3-1.2c0.7-0.4,1.1-0.7,1.2-1c0.1-0.3,0-0.6-0.2-1.5c-0.1-0.6-0.2-1.1-0.3-1.4c1.6,0.5,4,1.3,6.8,2.4
		c3.6,1.4,6.1,2.7,6.8,3c8.8,4.2,23.7,8,26.3,8.6c7.8,1.9,13.5,2.9,20.4,4c4.3,0.7,9.5,1.3,15.4,1.7c6.8,0.5,10.9,0.6,13.7,0.5
		c9.6-0.1,11.9-1.3,13.5-2.6c0.6-0.5,4.2-3.5,3.6-7.5c-0.4-3.3-3.6-6.2-7.9-7c2.4-0.3,5.7-0.3,9.2,1.1c8.8,3.4,11.3,12.6,11.7,14.1
		c0.4,1.6,1.1,4,0.4,7c-0.4,1.9-1.1,3.1-2.3,5.1c-1,1.7-2.3,3.9-4.5,6.1c-2.9,2.8-5.9,4.1-8.6,5.2c-3,1.3-6.1,2-10.8,2.7
		c-6.4,1-12.8,1.3-16.4,1.2c-2,0.1-3.9,0.3-5.9,0.2c-5.8-0.1-11.6,0.2-17.4-0.7c-3.5-0.6-6.5-1-12.4-2.2c-13-2.6-21.3-4.3-29.8-8
		c-0.9-0.4-2.5-1.1-5.7-2.5c-3.3-1.5-7.2-3.3-20.8-9.8c-3.4-1.6-5.2-2.5-6.5-3.1c-6.5-3.1-8-4-11.5-5.6c-2.2-1-5.5-2.6-9.7-4.2
		c-4.2-1.6-8.2-2.9-16.1-5.4c-4-1.3-7.3-2.3-9.6-3c0.8-1.7,3.2-7.6,1.2-13.9c-0.5-1.6-1.5-4.8-4.6-7c-1-0.7-2-1.2-2.6-1.4
		C412.9,82.9,417.7,81,418.5,76.1 M396.5,85.7c-0.9,1.1-1.2,2.2-1.3,2.8c-0.9-2.5-1.8-4.9-2.6-7.2c0.6,0.5,1.5,1.1,2.5,1.7
		c1.3,0.7,2.4,1.1,3.3,1.3C397.9,84.4,397.2,84.9,396.5,85.7 M410.4,107.4c0,0-2.7,3.1-7.6,9.3c-1.2,1.5-2.8,3.7-4.6,6.7
		c1.1-4.9,1.9-11.2,1.3-18.5c-0.2-2.7-0.6-5.2-1.1-7.5c0.4,0.7,1.4,2.5,3.5,3.6c0.3,0.1,4.2,2.1,7.7-0.3c2.9-2,3.2-5.4,3.2-5.8
		c0.3,2.2,0.3,4.1,0.2,5.4c-0.1,1.5-0.3,2.9-1,4.5C411.5,106.2,410.7,107,410.4,107.4 M430.3,135.5c-0.7,0.3-1.3,0.1-2.2-0.2
		c-1.8-0.6-2.7-0.8-3.4-1.2c-2.5-1.2-4.7-2.9-5.9-3.8c2.2,0.4,4.4,0.7,6.7,1.1c2,1,4,2,6,3.1C431.2,134.8,430.9,135.3,430.3,135.5
		 M443.1,178.1c-0.7-0.4-1.7-0.9-2.9-1.2c-0.5-0.1-1.1-0.2-1.5-0.3c0.8,0,1.7-0.1,2.7-0.3c0.7-0.1,1.3-0.3,1.8-0.5
		c-0.1,0.3-0.2,0.7-0.3,1C443,177.2,443.1,177.6,443.1,178.1 M460.3,164C460.3,164,460.3,164,460.3,164
		C460.3,164,460.3,164,460.3,164 M649,182.8c-3.4,0.5-11.2,0.1-13.6-0.7c0.8-0.1,1.4-0.2,1.9-0.2c5-0.2,9.9-1,14.7-2.3
		c2.9-0.8,5.8-1.2,8.7-1.5c0.2,0,0.3,0.1,0.5,0.1C660.3,179.5,652.9,182.2,649,182.8"/>
</g>
</svg>
